<?xml version="1.0" encoding="UTF-8"?><svg id="_内容" xmlns="http://www.w3.org/2000/svg" width="18" height="18" viewBox="0 0 18 18"><defs><style>.cls-1{fill:#fff;}</style></defs><path class="cls-1" d="M17.62,4.64c-.21-.78-.82-1.39-1.59-1.6-1.4-.38-7.03-.38-7.03-.38,0,0-5.63,0-7.03.38-.77.21-1.38.82-1.59,1.6-.38,1.41-.38,4.36-.38,4.36,0,0,0,2.95.38,4.36.21.78.82,1.39,1.59,1.6,1.4.38,7.03.38,7.03.38,0,0,5.63,0,7.03-.38.77-.21,1.38-.82,1.59-1.6.38-1.41.38-4.36.38-4.36,0,0,0-2.95-.38-4.36ZM7.16,11.68v-5.35l4.7,2.68-4.7,2.68Z"/></svg>