<svg id="画像" xmlns="http://www.w3.org/2000/svg" width="60" height="60" viewBox="0 0 60 60"><defs><style>.cls-1{opacity:0.8;}.cls-2{fill:#fff;}</style></defs><g class="cls-1"><rect class="cls-2" x="-6.14" y="27.47" width="72.29" height="3.61" transform="matrix(0.8, -0.6, 0.6, 0.8, -11.57, 23.86)"/><path class="cls-2" d="M55.45,18.86l-3.26-1L40.52,26.66a10.84,10.84,0,0,1-16,12l-4.86,3.65h4.1L20.5,50.5a2.28,2.28,0,0,0,2.27,3.36H37.23A2.28,2.28,0,0,0,39.5,50.5l-3.28-8.21h4.62A35.47,35.47,0,0,0,48,41.41l7.45-1.86a4.88,4.88,0,0,0,3.51-4.49V23.49A5.14,5.14,0,0,0,55.45,18.86Z"/><path class="cls-2" d="M19.16,29.28a10.83,10.83,0,0,1,16.3-9.37l4.86-3.64H19.88a37.11,37.11,0,0,0-7.13.83L4.6,19a4.83,4.83,0,0,0-3.52,4.45V35.06a4.88,4.88,0,0,0,3.51,4.49l3.51.88L19.48,31.9A10.8,10.8,0,0,1,19.16,29.28Z"/><path class="cls-2" d="M37.23,29.28c0-.05,0-.1,0-.15l-9.39,7a7.09,7.09,0,0,0,2.17.34A7.23,7.23,0,0,0,37.23,29.28Z"/><path class="cls-2" d="M22.77,29.28s0,.09,0,.14l9.39-7A7.08,7.08,0,0,0,30,22.05,7.23,7.23,0,0,0,22.77,29.28Z"/></g></svg>