<?xml version="1.0" encoding="UTF-8"?><svg id="_åƒ" xmlns="http://www.w3.org/2000/svg" width="24" height="24" viewBox="0 0 24 24"><defs><style>.cls-1{fill:#fff;}</style></defs><path class="cls-1" d="M20.66,2v15.29c0,1.27-.36,2.26-1.07,2.96-.71,.71-1.7,1.06-2.95,1.06-.86,0-1.56-.23-2.12-.68-.55-.46-.83-1.03-.83-1.73,0-.88,.35-1.61,1.05-2.2,.7-.59,1.6-.88,2.71-.88,.41,0,.81,.05,1.18,.16l.03-.03V7.2l-10.33,1.93v10.84c0,1.27-.36,2.26-1.07,2.96-.72,.71-1.7,1.06-2.95,1.06-.86,0-1.57-.23-2.12-.68-.55-.46-.83-1.03-.83-1.73,0-.88,.35-1.61,1.05-2.2s1.6-.88,2.71-.88c.41,0,.81,.05,1.18,.16l.03-.03V4.68l14.35-2.68Z"/></svg>