<?xml version="1.0" encoding="UTF-8"?><svg id="_åƒ" xmlns="http://www.w3.org/2000/svg" width="32" height="32" viewBox="0 0 32 32"><defs><style>.cls-1{fill:#ffff52;}</style></defs><path class="cls-1" d="M3.89,31.52c-.37,0-.77-.05-1.17-.16-1.32-.37-2.33-1.53-2.63-3.03-.4-2.02,.51-4.13,2.44-5.64,2.09-1.64,3.19-3.29,3.03-4.53-.13-1.01-1.15-1.64-1.99-2-.52-.22-.77-.83-.55-1.36,.22-.53,.83-.77,1.36-.55,2.41,1.03,3.08,2.54,3.22,3.64,.27,2.05-1.05,4.27-3.81,6.43-1.3,1.02-1.93,2.36-1.69,3.6,.14,.73,.59,1.28,1.15,1.44,2.24,.61,4.11-2.61,4.13-2.64,.28-.5,.91-.68,1.41-.4,.5,.28,.68,.91,.4,1.41-.1,.17-2.17,3.79-5.33,3.78Z"/><g><path class="cls-1" d="M29.57,2.08C26.92-.15,23.1,0,20.59,2.24l10.37,8.7c1.78-2.85,1.26-6.64-1.39-8.86Z"/><polygon class="cls-1" points="6.3 27.33 8.73 29.38 10.91 27.24 8.03 24.82 6.3 27.33"/><path class="cls-1" d="M29.68,12.46L19.32,3.77c-.63,1.03-.96,2.17-1,3.33l8.25,6.92c1.13-.24,2.2-.76,3.11-1.56Z"/><polygon class="cls-1" points="24.53 14.91 17.8 9.27 8.59 22.7 12.9 26.31 24.53 14.91"/></g></svg>