<svg id="画像" xmlns="http://www.w3.org/2000/svg" width="32" height="32" viewBox="0 0 32 32"><defs><style>.cls-1{fill:#fff;}</style></defs><path class="cls-1" d="M3.89,31.52a4.39,4.39,0,0,1-1.17-.16,3.84,3.84,0,0,1-2.63-3,5.79,5.79,0,0,1,2.44-5.63c2.09-1.64,3.2-3.29,3-4.53-.14-1-1.16-1.65-2-2a1,1,0,1,1,.81-1.91c2.41,1,3.09,2.54,3.23,3.64.27,2-1,4.27-3.81,6.43a3.77,3.77,0,0,0-1.68,3.6,1.76,1.76,0,0,0,1.15,1.44c2.23.62,4.11-2.61,4.13-2.64a1,1,0,0,1,1.81,1C9.12,27.9,7.05,31.52,3.89,31.52Z"/><path class="cls-1" d="M29.57,2.08a6.85,6.85,0,0,0-9,.16L31,10.94A6.83,6.83,0,0,0,29.57,2.08Z"/><polygon class="cls-1" points="6.3 27.33 8.73 29.38 10.91 27.24 8.03 24.82 6.3 27.33"/><path class="cls-1" d="M29.68,12.46,19.32,3.77a6.83,6.83,0,0,0-1,3.33L26.57,14A6.85,6.85,0,0,0,29.68,12.46Z"/><polygon class="cls-1" points="24.52 14.91 17.8 9.27 8.59 22.7 12.9 26.31 24.52 14.91"/></svg>