<svg id="画像" xmlns="http://www.w3.org/2000/svg" width="24" height="24" viewBox="0 0 24 24"><defs><style>.cls-1{fill:#fff;}</style></defs><path class="cls-1" d="M24,4.56a9.87,9.87,0,0,1-2.83.77,4.94,4.94,0,0,0,2.17-2.72A10,10,0,0,1,20.21,3.8a4.93,4.93,0,0,0-8.52,3.37,5.12,5.12,0,0,0,.13,1.12A14,14,0,0,1,1.67,3.15,4.91,4.91,0,0,0,3.2,9.72,4.87,4.87,0,0,1,1,9.11v.06a4.93,4.93,0,0,0,4,4.83,5,5,0,0,1-1.29.17,4.73,4.73,0,0,1-.93-.09,4.93,4.93,0,0,0,4.6,3.42,9.9,9.9,0,0,1-6.12,2.11A9.18,9.18,0,0,1,0,19.54a13.92,13.92,0,0,0,7.55,2.21,13.92,13.92,0,0,0,14-14c0-.21,0-.42,0-.63A10.1,10.1,0,0,0,24,4.56Z"/></svg>