<?xml version="1.0" encoding="UTF-8"?><svg id="_内容" xmlns="http://www.w3.org/2000/svg" width="24" height="24" viewBox="0 0 24 24"><defs><style>.cls-1{fill:#fff;}</style></defs><path class="cls-1" d="M22.54,0v16.68c0,1.38-.39,2.46-1.17,3.23-.78.77-1.85,1.16-3.22,1.16-.94,0-1.71-.25-2.31-.75-.61-.5-.91-1.13-.91-1.89,0-.96.38-1.76,1.14-2.4.76-.64,1.75-.97,2.96-.97.45,0,.88.06,1.29.18l.03-.03V5.68l-11.27,2.11v11.83c0,1.38-.39,2.46-1.17,3.23-.78.77-1.85,1.16-3.22,1.16-.94,0-1.71-.25-2.31-.75-.61-.5-.91-1.13-.91-1.89,0-.95.38-1.76,1.14-2.4s1.75-.97,2.96-.97c.45,0,.88.06,1.29.18l.03-.03V2.93L22.54,0Z"/></svg>