<svg id="画像" xmlns="http://www.w3.org/2000/svg" width="24" height="24" viewBox="0 0 24 24"><defs><style>.cls-1{fill:#fff;}.cls-2{fill:none;stroke:#25303a;stroke-miterlimit:10;stroke-width:0.5px;}</style></defs><path class="cls-1" d="M20.66,2V17.29a4,4,0,0,1-1.08,3,4,4,0,0,1-2.95,1.06,3.19,3.19,0,0,1-2.11-.69,2.13,2.13,0,0,1-.84-1.73,2.77,2.77,0,0,1,1.05-2.2,4.05,4.05,0,0,1,2.71-.88,4.2,4.2,0,0,1,1.18.16l0,0V7.2L8.32,9.14V20a4,4,0,0,1-1.08,3A4,4,0,0,1,4.29,24a3.27,3.27,0,0,1-2.12-.68,2.18,2.18,0,0,1-.83-1.74,2.75,2.75,0,0,1,1.05-2.19A4,4,0,0,1,5.1,18.5a4.2,4.2,0,0,1,1.18.16l0,0V4.68Z"/><rect class="cls-2" width="24" height="24"/></svg>