<?xml version="1.0" encoding="UTF-8"?><svg id="_åƒ" xmlns="http://www.w3.org/2000/svg" width="24" height="24" viewBox="0 0 24 24"><defs><style>.cls-1{fill:#fff;}</style></defs><path class="cls-1" d="M21.49,5.54h-7.68L18.27,1.1l-1.11-1.1-5.18,5.15L6.82,.02l-1.11,1.1,4.44,4.41H2.51c-1.12,0-2.03,.9-2.03,2.01v12.1c0,1.12,.91,2.02,2.03,2.02h2.4l1.31,2.11c.13,.19,.28,.23,.42,.23s.31-.06,.42-.23l1.31-2.11h7.01l1.31,2.11c.13,.19,.28,.23,.43,.23s.31-.06,.42-.23l1.31-2.11h2.65c1.12,0,2.03-.9,2.03-2.02V7.55c0-1.11-.91-2.01-2.03-2.01Z"/></svg>