<svg id="画像" xmlns="http://www.w3.org/2000/svg" width="32" height="32" viewBox="0 0 32 32"><defs><style>.cls-1{fill:#ffff52;}</style></defs><path class="cls-1" d="M23.49,5.67,1.35,18.45a2.72,2.72,0,0,0-1,3.7l4.46,7.72a2.71,2.71,0,0,0,3.69,1L30.65,18.08a2.72,2.72,0,0,0,1-3.7L27.18,6.66A2.71,2.71,0,0,0,23.49,5.67ZM14.32,20.88a.67.67,0,0,1-.24.92l-1.55.89a.68.68,0,0,0-.25.92l.9,1.55a.68.68,0,0,1-.25.92L10.48,27.5a.7.7,0,0,1-.93-.25L8.66,25.7a.67.67,0,0,0-.92-.24l-1.55.89a.68.68,0,0,1-.92-.25L3.86,23.65a.67.67,0,0,1,.24-.92l1.55-.89a.7.7,0,0,0,.25-.93L5,19.37a.68.68,0,0,1,.24-.93L7.7,17a.68.68,0,0,1,.93.25l.89,1.54a.67.67,0,0,0,.92.25L12,18.18a.67.67,0,0,1,.92.24Zm8-.8a2.32,2.32,0,1,1,.85-3.17A2.31,2.31,0,0,1,22.28,20.08Zm4.86-3.24A2.32,2.32,0,1,1,28,13.67,2.32,2.32,0,0,1,27.14,16.84Z"/><path class="cls-1" d="M14.76,13.3l-.18.08a1.13,1.13,0,0,1-1.46-.67c-.51-1.4-2-2.63-4.58-1.88-2.33.68-4.41.46-5.85-.62A4.73,4.73,0,0,1,.86,6.29c0-.94.34-4.13,4.47-5.28C8,.27,9.87,1.49,11.69,2.68l.63.41A3,3,0,0,0,15,3.65a2.17,2.17,0,0,0,1-1.84,1.13,1.13,0,0,1,2.25.27A4.3,4.3,0,0,1,16,5.7,5,5,0,0,1,11.1,5l-.65-.42C8.63,3.4,7.52,2.75,5.94,3.19,3.5,3.87,3.13,5.43,3.13,6.3a2.55,2.55,0,0,0,.93,2.1,4.42,4.42,0,0,0,3.85.26c3.84-1.12,6.45.83,7.34,3.27A1.13,1.13,0,0,1,14.76,13.3Z"/></svg>