<?xml version="1.0" encoding="UTF-8"?><svg id="_åƒ" xmlns="http://www.w3.org/2000/svg" width="24" height="24" viewBox="0 0 24 24"><defs><style>.cls-1{fill:#fff;}</style></defs><path class="cls-1" d="M23.5,6.19c-.28-1.04-1.09-1.86-2.12-2.14-1.87-.5-9.38-.5-9.38-.5,0,0-7.51,0-9.38,.5-1.03,.28-1.85,1.1-2.12,2.14-.5,1.88-.5,5.81-.5,5.81,0,0,0,3.93,.5,5.81,.28,1.04,1.09,1.86,2.12,2.14,1.87,.5,9.38,.5,9.38,.5,0,0,7.51,0,9.38-.5,1.03-.28,1.85-1.1,2.12-2.14,.5-1.88,.5-5.81,.5-5.81,0,0,0-3.93-.5-5.81ZM9.55,15.57v-7.14l6.27,3.57-6.27,3.57Z"/></svg>