<?xml version="1.0" encoding="UTF-8"?><svg id="_内容" xmlns="http://www.w3.org/2000/svg" width="32" height="32" viewBox="0 0 32 32"><defs><style>.cls-1{fill:#fff;}</style></defs><path class="cls-1" d="M27.85,28.96l-3.65-2.6c2.17-3.04,3.32-6.63,3.32-10.39s-1.15-7.36-3.32-10.4l3.65-2.6c2.72,3.81,4.15,8.3,4.15,13s-1.44,9.19-4.15,13Z"/><path class="cls-1" d="M22.08,24.54l-3.72-2.5c1.18-1.76,1.81-3.81,1.81-5.93s-.68-4.33-1.95-6.13l3.65-2.59c1.82,2.56,2.78,5.58,2.78,8.73s-.89,5.93-2.57,8.43Z"/><rect class="cls-1" y="9" width="4" height="13"/><polygon class="cls-1" points="16 28.96 6 22 6 9 16 2.96 16 28.96"/></svg>