<svg id="画像" xmlns="http://www.w3.org/2000/svg" width="70" height="50" viewBox="0 0 70 50"><defs><style>.cls-1{fill:#55323c;}.cls-2{fill:#fff;}</style></defs><rect class="cls-1" x="43.5" y="15" width="21" height="21"/><path class="cls-2" d="M49.55,29.53a32.61,32.61,0,0,0,4.68-4.06,4.09,4.09,0,0,0,1.12-2.6c0-1.1-.61-1.65-1.84-1.65A6.82,6.82,0,0,0,50,22.51l-.77-2.44a8.14,8.14,0,0,1,2.22-1A8.7,8.7,0,0,1,54,18.68a4.94,4.94,0,0,1,3.35,1,3.66,3.66,0,0,1,1.17,2.88,5.25,5.25,0,0,1-1,3,22.62,22.62,0,0,1-3.91,3.88v0h5V32h-9Z"/></svg>