<?xml version="1.0" encoding="UTF-8"?><svg id="_åƒ" xmlns="http://www.w3.org/2000/svg" width="50" height="50" viewBox="0 0 50 50"><defs><style>.cls-1{fill:#25303a;}</style></defs><path class="cls-1" d="M38.02,14.63c.96,.88,2.43,.9,3.32,0,.91-.91,.88-2.45-.08-3.41l-4.15-4.14c-.96-.96-2.49-.99-3.41-.08-.89,.89-.87,2.36,0,3.33l-1.89,1.89c-2.43-1.62-5.35-2.57-8.48-2.57-8.46,0-15.35,6.88-15.35,15.34,0,8.46,6.89,15.35,15.35,15.35,7.21,0,13.25-5,14.89-11.7l.19,.02c1.29,.11,2.39-.27,2.44-.85l.22-2.52c.05-.58-.96-1.15-2.25-1.26l-.2-.02c-.18-2.75-1.07-5.31-2.51-7.47l1.89-1.89Zm-14.67,20.27c-5.46,0-9.91-4.45-9.91-9.91,0-5.46,4.44-9.9,9.91-9.9,5.46,0,9.9,4.44,9.9,9.9,0,5.46-4.44,9.91-9.9,9.91Z"/><path class="cls-1" d="M24.25,24.2c-.22-.25-.54-.42-.9-.42h0l-3.54-6.13c-.16-.29-.53-.39-.82-.22-.29,.17-.39,.54-.22,.83l3.55,6.15c-.1,.18-.18,.37-.18,.59,0,.67,.54,1.21,1.21,1.21,.36,0,.67-.16,.9-.41l5.29,1.17,2.46-1.97-2.46-1.97-5.29,1.17Z"/></svg>