<?xml version="1.0" encoding="UTF-8"?><svg id="_åƒ" xmlns="http://www.w3.org/2000/svg" width="70" height="50" viewBox="0 0 70 50"><defs><style>.cls-1{fill:#fff;}.cls-2{fill:#25303a;}</style></defs><rect class="cls-2" x="43.5" y="15" width="21" height="21"/><path class="cls-1" d="M49.55,29.53c2.36-1.81,3.92-3.17,4.67-4.06,.75-.89,1.12-1.76,1.12-2.6,0-1.1-.61-1.66-1.84-1.66-.98,0-2.15,.43-3.49,1.3l-.77-2.45c.61-.41,1.35-.74,2.22-1,.87-.26,1.7-.39,2.49-.39,1.45,0,2.57,.35,3.35,1.04,.78,.69,1.17,1.65,1.17,2.87,0,1.06-.33,2.07-1,3.03s-1.97,2.26-3.92,3.88v.04h4.99v2.47h-9v-2.47Z"/></svg>