<svg id="画像" xmlns="http://www.w3.org/2000/svg" width="50" height="50" viewBox="0 0 50 50"><defs><style>.cls-1{fill:#55323c;}</style></defs><path class="cls-1" d="M38,14.63a2.4,2.4,0,0,0,3.32,0,2.43,2.43,0,0,0-.08-3.41L37.11,7.09A2.42,2.42,0,0,0,33.7,7a2.41,2.41,0,0,0,0,3.32l-1.88,1.89a15.35,15.35,0,1,0,6.4,16.42l.2,0c1.29.11,2.39-.27,2.44-.86l.22-2.52c0-.58-1-1.15-2.26-1.27h-.19a15.3,15.3,0,0,0-2.51-7.48ZM23.35,34.91A9.91,9.91,0,1,1,33.25,25,9.93,9.93,0,0,1,23.35,34.91Z"/><path class="cls-1" d="M24.25,24.2a1.19,1.19,0,0,0-.9-.41h0L19.8,17.65a.59.59,0,0,0-.82-.22.61.61,0,0,0-.22.83l3.55,6.15a1.2,1.2,0,0,0-.18.59,1.21,1.21,0,0,0,2.12.8L29.54,27,32,25l-2.46-2Z"/></svg>