<?xml version="1.0" encoding="UTF-8"?><svg id="_åƒ" xmlns="http://www.w3.org/2000/svg" width="150" height="50" viewBox="0 0 150 50"><defs><style>.cls-1{stroke-width:.12px;}.cls-1,.cls-2{fill:none;stroke:#e50012;}.cls-2{stroke-width:.23px;}.cls-3{fill:#e50012;}.cls-4{fill:#231815;}</style></defs><path class="cls-3" d="M36.63,7.15c-.04,.09-.09,.06-.18,.06s-.14,.05-.22,.08c-.07,.04-.19,.04-.22,.11-.04,.07-.17,.12-.25,.14-.08,.02-.24,.14-.39,.26-.15,.13-.8,.58-1.23,1.26-.42,.67-.36,.91-.45,1.15-.11,.27-.16,.49-.23,.69-.07,.2-.05,1.04-.05,1.19,0,.14,.11,.18,.11,.25s.04,.12,.1,.21c.04,.06,0,.1,.08,.19,.08,.09,.03,.06,.15,.17,.07,.07,.07,.18,.18,.38,.11,.2,.13,.2,.23,.31,.11,.12,.18,.17,.29,.23,.16,.1,.08,.26,.27,.25,.18-.01,.32-.05,.45-.01,.11,.03,.05,0,.18,0s-.05-.02,.13-.04c.16-.02,.04,.13,.24,.15,0,0,.11,.05,.33,.01,.22-.04,.37-.08,.44-.22,.12-.27,.22-.27,.33-.38,.09-.1,.12-.04,.21-.08,.09-.04,.12-.28,.22-.34,.16-.1,.32-.34,.44-.43,.13-.09,.43-.56,.59-.88,.17-.33,.37-.85,.39-1.04,.02-.19-.03-.24,.03-.38,.06-.14,.08-.37,.08-.51s-.04-.36-.07-.47c-.04-.11-.05-.28-.05-.28,0,0-.1-.16-.1-.25s-.03-.21-.13-.28c-.11-.07-.15-.3-.22-.44-.07-.15-.16-.15-.16-.28s-.27-.32-.36-.42c-.09-.11-.33-.33-.42-.33s-.1,0-.21,0-.11-.06-.18-.08c-.07-.02-.24-.03-.32,.06m-14.95,15.55c-.1,.07-.16,.11-.22,.2-.06,.09-.07,.16-.14,.21-.07,.05-.08,.05-.12,.07-.04,.02-.1,.02-.15,.07-.05,.05-.07,.09-.11,.1-.04,0-.07,.03-.12,.06-.05,.03-.09,.05-.07,.13,.02,.08,0,.13,.06,.13,.05,0,.12,.01,.15,.04,.02,.02,.09,.07,.14,.06,.05,0,.06,0,.09,.04,.02,.05,.03,.13,.1,.19,.07,.06,.12,.05,.15,.11,.03,.06,.07,.07,.06,.15,0,.08-.02,.12,0,.13,.02,.02,.02,.03,.03,.1,0,.07-.04,.2,0,.2,.03,0,.03,0,.03,.05s-.03,.03-.03,.06c0,.03,.03,.05,.03,.05,0,0,0,.02,0,.08s.04,.12,.04,.12c.07,.03,.19,.03,.23,0,.04-.04,.06-.06,.16-.09,.1-.04,.14-.15,.26-.21,.12-.06,.15-.15,.21-.14,.06,0,.14-.1,.2-.1,.05,0,.13-.05,.2-.06,.06,0,.1-.01,.13-.05,.03-.04,.04-.07,.07-.07s0-.01,.06-.06c.06-.05,.06-.09,.11-.1,.05,0,.09-.09,.16-.13,.08-.04,.16-.12,.28-.12s.05,.01,.13,.08c.08,.07,.1,.06,.19,.09,.09,.02,.11-.03,.12,.04,.02,.07,.05,.12,.15,.1,.1-.02,.13-.09,.24-.14,2.94-1.54,8.38-3.78,11.62-4.94,1.34-.48,2.04-.76,4.42-1.54,3.91-1.15,7.17-2.07,9.31-2.56,0,0,.47-.12,.58-.14,.11-.02,.16-.04,.19-.08,.03-.04,.08-.2,.06-.29-.03-.09-.11-.22-.08-.29,.02-.07,.17-.4,.17-.45,0-.06-.08-.15-.11-.17-.03-.02,.03-.2-.02-.28-.04-.07-.13-.14-.2-.19-.08-.05-.1-.31-.1-.36s0-.11,0-.11c0,0,.05-.03,0-.07-.06-.04-.12-.06-.12-.12,0-.07,.02-.06,0-.11-.03-.05-.06-.08-.08-.09-.03,0,0-.07-.02-.15,0-.08-.02-.14-.02-.14l-.18-.14s-.03-.04-.04-.09c0-.05,0-.08-.06-.11-.06-.03-.27-.08-.27-.08,0,0-.15-.04-.21-.02-.07,.03-.1,0-.19,.06-.09,.05-.22,.1-.3,.1s-.13,.03-.2,0c-.07-.02-.06-.06-.36,.05-.29,.11-2.84,.8-2.84,.8,0,0-6.99,2.07-11.24,3.83-1.4,.58-7.1,2.95-12.51,6.28m-2.67,6.94s-2.33,1.18-2.65,1.57c-.23,.27-.2,.76,.06,1.71,.26,.95,.46,1.42,.64,1.54,.44,.28,1.53-.47,2.6-.89,2.39-.93,3.56-1.25,3.56-1.25,0,0,.28-.05,.13,.05-.51,.36-2.37,1.23-3.25,1.72-1.13,.63-4.52,2.45-4.69,2.66-.17,.21-.42,.36-.37,.77,0,0,.1,.8,.55,1.76,.28,.58,.73,1.15,1.09,1.27,.36,.11,.47-.16,1.03-.39,.17-.07,8.53-4.04,8.53-4.04,0,0,2.29-.99,2.63-1.12,.34-.13,.26-.26,.31-.36,.05-.09-.05-.18,.11-.35,.1-.11,.38-1.03,.38-1.03,0,0,.17-.34,.15-.42-.05-.16,.34-.89,.38-1.12,.03-.14,.23-.5,.27-.6,.05-.1,.11-.33,.17-.54,.05-.17,.39-1.1,.39-1.1,0,0,.35-.68,.38-.93,0-.08,.2-.36,.23-.49,.03-.13,0-.21,.08-.28,.08-.06,.31-.5,.31-.63s.25-.49,.41-.81c.17-.53,.19-.66,.35-.87,.13-.16,.16-.46,.21-.62,.05-.16,.1-.35,.18-.48,.08-.13,.23-.45,.28-.54,.05-.08,.05-.28,.07-.38,.02-.1,.16-.2,.18-.29,.03-.14,.04-.11,.04-.18v-.2c.03-.07,.11-.18,.06-.29-.05-.11-.31,.05-.63,.16-.36,.12-8.62,4.16-8.62,4.16l-5.57,2.82Zm9.84,6.57c-.08,.01-.51,.26-.57,.28-.07,.03-1.86,1.08-1.99,1.2-.13,.12-.2,.19-.23,.35-.03,.15-.05,.63-.01,.92,.05,.4,.25,1.12,.38,1.36,.13,.24,.4,.68,.67,.89,.14,.11,.25,.17,.36,.17s.87-.44,1.24-.61c.37-.17,2.08-1.06,2.31-1.16,.22-.1,3.83-1.9,4-1.99,.17-.09,3.48-1.65,3.65-1.74,.17-.09,2.66-1.28,2.71-1.3,.05-.03,.13-.06,.11-.15-.03-.09-.11-.16-.09-.31,0-.11-.05-.16-.03-.24,.04-.21-.05-.22-.08-.3-.05-.12,0-.12-.04-.26-.06-.19-.22-.75-.3-.93-.06-.15-.14-.38-.18-.49-.04-.11-.02-.14-.05-.23-.07-.22-.24-.44-.28-.53-.04-.09-.08-.25-.1-.28-.02-.04-.11-.14-.12-.19-.01-.05-.05-.13-.08-.17-.04-.04-.17-.12-.17-.21s.03-.07-.02-.16c-.05-.09-.16-.18-.2-.27-.04-.09-.28-.47-.5-.65-.08-.07-.23-.12-.26-.21-.03-.09-.2-.22-.23-.26-.04-.04-.09-.05-.12-.1-.03-.04-.05-.12-.1-.13-.09-.02-.11-.07-.11-.07,0,0-.09-.08-.15-.17-.07-.09-.2-.19-.27-.21-.08-.03-.07-.04-.14-.12-.04-.05-.03-.06-.13-.04-.09,.01-.28,.66-.36,.75-.08,.09-.15,.23-.17,.35-.01,.12-.49,1.14-.6,1.29-.1,.16-.14,.26-.21,.47-.08,.21-.06,.24-.13,.33-.07,.09-.14,.2-.23,.42l-.25,.59s-.17,.28-.39,.65c-.22,.38-.21,.51-.29,.57-.08,.06-.09,.23-.17,.36-.08,.13-.13,.26-.22,.38-.09,.13-.18,.38-.27,.54,0,0-.11,.34-.18,.42-.08,.08-.18,.28-.22,.4-.04,.13-.13,.29-.19,.37-.06,.08-.09,.15-.19,.34s-.29,.54-.42,.72c-.13,.18-.17,.42-.26,.54-.09,.13-.05,.16-.14,.24-.09,.08-.06,.1-.19,.11-.13,.01-.19,.06-.17-.05,.01-.11,.02-.18-.04-.18-.06,0-.05-.02-.13,.07-.08,.09-.09,.05-.19,.09-.1,.04,.01,.04-.16,.08-.17,.04-.11,0-.2,0s-.07,.06-.19,.08c-.11,.03-.2,.04-.2-.04s.04,0,.02-.11c-.03-.1,0-.12-.07-.1-.08,.03-.13,.05-.18-.01-.05-.07-.03-.08-.11-.09-.08-.01-.15,.01-.2-.03-.05-.04-.09-.11-.18-.13-.09-.03-.18,0-.28,.06-.1,.05-.03,.09-.11,.09s-.12,.06-.14-.03c-.02-.09,0-.2-.06-.24-.06-.04-.11-.01-.22-.01s-.04-.06-.08-.14c-.04-.08-.06,0-.17-.07-.1-.08-.04-.08-.1-.12-.07-.04-.13,0-.2,0-.09,0-.18-.04-.23-.12-.07-.12-.08-.41-.08-.46s-.03-.07-.1-.06m9.42-15.33c0,.09,.07,.11,.18,.19,.16,.1,.5,.35,.61,.41,.21,.11,.54,.45,.54,.45,0,0,.14,.25,.31,.38,.18,.13,.22,.14,.45,.41,.17,.19,.64,.59,.64,.59l.19,.08,.26,.32s.11,.08,.17,.16c.06,.09,.48,.5,.48,.5,0,0,.17,.13,.28,.26,.11,.13,.22,.22,.26,.32,.04,.11,.13,.23,.26,.31,.13,.09,.24-.06,.39-.12,.15-.06,1.11-.57,1.29-.64,.13-.05,3.27-1.54,3.55-1.69,.28-.15,2.49-1.12,2.75-1.25,.26-.13,2.51-1.15,2.51-1.15,0,0,.65-.26,1.1-.48,.32-.16,.43-.17,.52-.4,.04-.11-.25-1.15-.36-1.36-.11-.22-.33-.88-.68-1.39-.34-.51-.65-.85-.7-.91-.05-.06-.16-.09-.29-.09s-.53,.12-.53,.12c0,0-1.32,.44-1.63,.52-.32,.08-7.88,2.56-8.88,2.94-.99,.38-1.23,.4-3.03,1.16-.4,.17-.61,.22-.63,.36m5.42,4.89s-.19,.05-.18,.14c.01,.09,.06,.08,.12,.16,.06,.08,.25,.2,.48,.44,.16,.17,.28,.4,.38,.49,.1,.09,.15,.18,.17,.25,.02,.07,.08,.11,.1,.16,.02,.05,.03,.09,.08,.22,.05,.12,.09,.19,.17,.3,.08,.11,.16,.2,.24,.43,.05,.12,.07,.19,.07,.19h6.17c.43-.13,1.33-.45,1.63-.57,0,0,2.45-.8,3.67-1.16,.71-.2,3.19-.82,3.3-.86,.16-.06,.26-.34,.28-.45,.02-.11,.19-1.1,0-1.85-.19-.75-.51-1.68-.69-1.87-.1-.1-.3-.19-.48-.14-.18,.05-4.11,.93-4.11,.93,0,0-4.35,1.08-5.08,1.26-1.08,.27-5.51,1.63-6.34,1.95"/><path class="cls-1" d="M36.63,7.12c-.04,.09-.09,.07-.18,.07s-.14,.05-.22,.08c-.07,.04-.19,.04-.22,.11-.04,.07-.17,.12-.25,.14-.07,.02-.24,.14-.39,.26-.15,.13-.8,.58-1.23,1.26-.42,.67-.36,.91-.45,1.15-.11,.27-.16,.49-.23,.69-.07,.2-.05,1.04-.05,1.19,0,.14,.11,.18,.11,.25s.04,.12,.1,.21c.04,.06,0,.1,.08,.19,.08,.09,.03,.06,.15,.17,.07,.07,.07,.18,.18,.38,.11,.2,.13,.2,.23,.31,.11,.12,.18,.17,.29,.23,.16,.1,.08,.26,.27,.25,.18-.01,.32-.05,.45-.01,.11,.03,.05,0,.18,0s-.05-.02,.13-.04c.16-.02,.04,.13,.24,.15,0,0,.11,.05,.33,.01,.22-.04,.37-.08,.44-.22,.12-.27,.22-.27,.33-.38,.09-.1,.12-.04,.21-.08,.09-.04,.12-.28,.22-.34,.16-.1,.32-.35,.44-.43,.13-.09,.43-.56,.59-.88,.17-.33,.37-.85,.39-1.04,.02-.19-.03-.24,.03-.38,.05-.14,.08-.37,.08-.51s-.04-.37-.07-.47c-.04-.11-.05-.28-.05-.28,0,0-.1-.16-.1-.25s-.03-.21-.13-.28c-.11-.07-.15-.3-.22-.44-.07-.15-.16-.15-.16-.28s-.27-.32-.36-.43c-.09-.11-.33-.33-.42-.33s-.1,0-.21,0-.11-.06-.18-.08c-.07-.02-.24-.03-.32,.06Zm-14.97,15.58c-.1,.07-.17,.11-.22,.2-.06,.09-.07,.16-.14,.21-.07,.05-.08,.05-.12,.07-.04,.02-.1,.02-.15,.07-.05,.05-.07,.09-.11,.1-.04,0-.07,.03-.12,.06-.05,.03-.09,.05-.07,.13,.02,.08,0,.13,.06,.13s.12,.01,.15,.04c.02,.02,.09,.07,.14,.06,.05,0,.06,0,.09,.04,.02,.05,.03,.13,.1,.19,.07,.06,.12,.05,.15,.11,.03,.06,.07,.07,.06,.15,0,.08-.02,.12,0,.13,.02,.02,.02,.03,.03,.1,0,.07-.04,.2,0,.2,.03,0,.03,0,.03,.05s-.03,.03-.03,.06c0,.03,.03,.05,.03,.05,0,0,0,.02,0,.08s.04,.12,.04,.12c.07,.03,.19,.03,.23,0,.04-.04,.06-.06,.16-.09,.1-.04,.15-.15,.26-.21,.12-.06,.15-.15,.21-.14,.06,0,.14-.1,.2-.1,.05,0,.13-.05,.2-.06,.06,0,.1-.01,.13-.05,.03-.04,.04-.07,.07-.07s0-.01,.06-.06c.06-.05,.06-.09,.11-.1,.05,0,.09-.09,.16-.13,.08-.04,.16-.12,.28-.12s.05,.01,.13,.08c.08,.07,.1,.06,.19,.09,.09,.02,.11-.03,.12,.04,.02,.07,.05,.12,.15,.1,.1-.02,.13-.09,.24-.14,2.94-1.54,8.39-3.79,11.64-4.95,1.34-.48,2.05-.76,4.43-1.54,3.92-1.16,7.18-2.08,9.32-2.56,0,0,.47-.12,.58-.14,.11-.02,.16-.04,.19-.08,.03-.04,.08-.2,.06-.29-.03-.09-.11-.22-.08-.29,.02-.07,.17-.4,.17-.46,0-.06-.08-.15-.11-.18-.03-.02,.03-.2-.02-.28-.04-.07-.13-.14-.21-.19-.08-.05-.1-.31-.1-.36s0-.11,0-.11c0,0,.05-.03,0-.07-.06-.04-.12-.06-.12-.12,0-.07,.02-.06,0-.11-.03-.05-.06-.08-.08-.09-.03,0,0-.07-.02-.15,0-.08-.02-.14-.02-.14l-.18-.14s-.03-.04-.04-.09c0-.05,0-.08-.06-.11-.06-.03-.27-.08-.27-.08,0,0-.15-.04-.21-.02-.07,.03-.1,0-.19,.06-.09,.05-.22,.1-.3,.1s-.13,.03-.2,0c-.07-.02-.06-.06-.36,.05-.29,.11-2.84,.8-2.84,.8,0,0-7,2.07-11.26,3.84-1.4,.58-7.11,2.96-12.53,6.29m-2.67,6.95s-2.33,1.18-2.65,1.57c-.23,.28-.2,.76,.06,1.71,.26,.95,.46,1.43,.64,1.54,.44,.28,1.53-.47,2.6-.89,2.39-.94,3.57-1.25,3.57-1.25,0,0,.28-.05,.13,.05-.51,.36-2.37,1.24-3.26,1.73-1.14,.63-4.52,2.46-4.69,2.67-.17,.21-.42,.36-.38,.78,0,0,.1,.8,.55,1.76,.28,.58,.73,1.16,1.09,1.27,.36,.12,.47-.16,1.03-.39,.17-.07,8.54-4.05,8.54-4.05,0,0,2.3-1,2.64-1.12,.34-.13,.26-.26,.31-.36,.05-.09-.05-.18,.11-.35,.1-.11,.38-1.04,.38-1.04,0,0,.17-.34,.15-.42-.05-.16,.34-.89,.38-1.12,.03-.14,.23-.5,.27-.6,.05-.1,.11-.33,.17-.54,.05-.17,.39-1.1,.39-1.1,0,0,.35-.68,.38-.93,0-.08,.2-.36,.23-.49,.03-.13,0-.21,.08-.28,.08-.06,.31-.5,.31-.63s.25-.49,.41-.81c.17-.53,.19-.66,.35-.87,.13-.16,.16-.46,.21-.62,.05-.16,.1-.35,.18-.48,.08-.13,.23-.46,.28-.54,.05-.08,.05-.28,.07-.38,.02-.1,.16-.2,.18-.29,.03-.14,.04-.11,.04-.18v-.2c.03-.07,.11-.18,.06-.29-.05-.11-.31,.05-.63,.16-.36,.12-8.63,4.17-8.63,4.17l-5.58,2.82Zm9.85,6.59c-.08,.01-.51,.26-.57,.28-.07,.03-1.86,1.09-1.99,1.2-.13,.12-.2,.19-.23,.35-.03,.15-.05,.63-.01,.92,.05,.4,.25,1.12,.38,1.36,.13,.24,.4,.68,.67,.89,.15,.11,.25,.17,.36,.17s.87-.44,1.24-.61c.37-.17,2.09-1.06,2.31-1.17,.22-.1,3.83-1.91,4-2,.17-.09,3.49-1.65,3.65-1.75,.17-.09,2.66-1.28,2.71-1.31,.05-.03,.13-.06,.11-.15-.03-.1-.11-.16-.09-.31,0-.11-.05-.16-.03-.25,.04-.21-.05-.22-.08-.3-.05-.12,0-.12-.04-.26-.06-.19-.22-.75-.3-.93-.06-.15-.14-.38-.18-.49-.04-.11-.02-.15-.05-.23-.07-.22-.24-.44-.28-.53-.04-.09-.08-.25-.1-.29-.03-.04-.11-.14-.12-.19-.01-.05-.05-.13-.08-.17-.04-.04-.17-.12-.17-.21s.03-.07-.02-.17c-.05-.09-.16-.18-.2-.27-.04-.09-.28-.47-.5-.65-.08-.07-.23-.12-.26-.21-.03-.09-.2-.22-.23-.26-.04-.04-.09-.05-.12-.1-.03-.04-.05-.12-.1-.13-.09-.02-.11-.07-.11-.07,0,0-.09-.08-.15-.17-.07-.09-.2-.19-.27-.21-.08-.03-.07-.04-.14-.12-.04-.05-.03-.06-.13-.04-.09,.01-.28,.66-.36,.75-.08,.09-.15,.23-.17,.35-.01,.12-.49,1.14-.6,1.3-.1,.16-.14,.26-.22,.47-.08,.21-.06,.24-.13,.33-.07,.09-.14,.2-.23,.42l-.25,.6s-.17,.28-.39,.65c-.22,.38-.21,.51-.29,.57-.08,.06-.09,.23-.17,.36-.08,.13-.13,.26-.22,.39-.09,.13-.18,.38-.27,.54,0,0-.11,.34-.18,.42-.08,.08-.18,.28-.22,.4-.04,.13-.13,.29-.19,.37-.06,.08-.09,.16-.19,.34s-.29,.54-.42,.72c-.13,.18-.17,.42-.26,.55-.09,.13-.05,.16-.14,.24-.09,.08-.06,.1-.19,.11-.13,.01-.19,.06-.17-.05,.01-.12,.02-.18-.04-.18-.06,0-.05-.02-.13,.07-.08,.09-.09,.05-.19,.09-.1,.04,.01,.04-.16,.08-.17,.04-.11,0-.2,0s-.07,.06-.19,.08c-.11,.03-.2,.04-.2-.04s.04,0,.02-.11c-.03-.1,0-.12-.07-.1-.08,.03-.13,.05-.18-.01-.05-.07-.03-.08-.11-.09-.08-.01-.15,.01-.2-.03-.05-.04-.09-.11-.18-.13-.09-.03-.18,0-.28,.06-.1,.05-.03,.09-.11,.09s-.12,.06-.14-.03c-.02-.09,0-.2-.06-.24-.06-.04-.11-.01-.22-.01s-.04-.06-.08-.14c-.04-.08-.06,0-.17-.07-.1-.08-.04-.08-.1-.12-.07-.04-.13,0-.2,0-.09,0-.18-.04-.23-.12-.07-.12-.08-.41-.08-.46s-.03-.07-.1-.06m9.43-15.35c0,.09,.07,.11,.18,.19,.16,.1,.5,.35,.61,.41,.21,.11,.54,.45,.54,.45,0,0,.14,.25,.31,.38,.18,.13,.22,.14,.45,.41,.17,.19,.64,.59,.64,.59l.19,.08,.26,.32s.11,.08,.17,.16c.06,.09,.48,.5,.48,.5,0,0,.17,.13,.28,.26,.11,.13,.22,.22,.26,.32,.04,.11,.13,.23,.26,.31,.13,.09,.24-.06,.39-.12,.15-.07,1.11-.58,1.29-.64,.13-.05,3.27-1.54,3.55-1.69,.28-.15,2.49-1.13,2.75-1.26,.26-.13,2.51-1.15,2.51-1.15,0,0,.65-.26,1.1-.48,.32-.16,.43-.17,.52-.4,.04-.11-.25-1.15-.36-1.36-.11-.22-.33-.88-.68-1.4-.34-.51-.65-.85-.7-.91-.05-.06-.16-.09-.29-.09s-.53,.12-.53,.12c0,0-1.32,.44-1.64,.52-.32,.08-7.9,2.56-8.89,2.95-.99,.38-1.23,.4-3.04,1.17-.4,.17-.62,.22-.63,.36m5.43,4.9s-.19,.05-.18,.14c.01,.09,.06,.08,.12,.16,.06,.08,.25,.2,.48,.44,.16,.17,.28,.4,.39,.49,.1,.09,.15,.18,.17,.25,.02,.07,.08,.11,.1,.16,.02,.05,.03,.09,.08,.22,.05,.12,.09,.19,.17,.3,.08,.11,.16,.2,.24,.43,.05,.12,.07,.19,.07,.19h6.18c.43-.13,1.33-.45,1.64-.57,0,0,2.45-.8,3.67-1.16,.71-.2,3.2-.82,3.31-.87,.16-.06,.26-.34,.28-.45,.02-.11,.19-1.11,0-1.86-.19-.75-.51-1.69-.69-1.87-.1-.1-.3-.19-.48-.14-.18,.05-4.11,.93-4.11,.93,0,0-4.36,1.08-5.09,1.26-1.08,.27-5.51,1.64-6.35,1.95"/><polygon class="cls-4" points="44.33 34.42 45.5 29.71 47.16 29.71 47.13 32.6 48.53 29.71 50.18 29.71 48.99 34.42 47.95 34.42 48.79 31.12 47.16 34.42 46.09 34.42 46.13 31.12 45.32 34.42 44.33 34.42"/><polygon class="cls-4" points="131.97 29.59 131.71 30.65 129.79 30.65 129.6 31.43 131.25 31.43 131 32.47 129.35 32.47 129.14 33.32 131.07 33.32 130.84 34.29 127.57 34.29 128.8 29.59 131.97 29.59"/><polygon class="cls-4" points="54.14 29.71 53.88 30.78 51.95 30.78 51.76 31.56 53.42 31.56 53.16 32.6 51.52 32.6 51.3 33.44 53.23 33.44 53 34.42 49.82 34.42 50.97 29.71 54.14 29.71"/><path class="cls-4" d="M76.1,30.96l.12-1.14s-.63-.21-1.2-.18c-.61,.03-1.48,.49-1.59,1.38-.1,.8,.48,1.28,.72,1.55,.19,.22,.37,.58,.01,.84-.26,.19-.92,.04-1.39-.23l-.15,1.15s.6,.2,1.21,.18c1.14-.04,1.8-.85,1.8-1.68-.11-.71-.37-.83-.67-1.13-.48-.48-.29-.75-.17-.87,.43-.47,1.31,.12,1.31,.12"/><polygon class="cls-4" points="90.83 29.59 89.78 29.59 88.98 32.62 88.26 29.59 86.82 29.59 85.6 34.29 86.69 34.29 87.45 31.34 88.2 34.29 89.64 34.29 90.83 29.59"/><polygon class="cls-4" points="99.78 29.59 99.52 30.65 97.72 30.65 97.54 31.43 99.06 31.43 98.8 32.47 97.28 32.47 96.81 34.29 95.6 34.29 96.76 29.59 99.78 29.59"/><path class="cls-4" d="M102.47,32.25l.27,2.04h-1.29l-.19-2.6s.16,0,.55,0c.25,0,.6-.33,.64-.62,.05-.46-.53-.43-.53-.43h-.54l-.98,3.65h-1.2l1.25-4.7h2.15c1.72,0,1.27,2.22-.14,2.67"/><path class="cls-4" d="M107.29,32.04c-.2,.77-.77,1.32-1.44,1.32-.61,0-1.01-.55-.79-1.32,.19-.68,.59-1.46,1.49-1.43,.73,.02,.95,.66,.74,1.43m-.36-2.46c-1.78-.06-2.69,.97-3.08,2.33-.51,1.75,.56,2.49,1.79,2.49,1.33,0,2.51-.9,2.88-2.3,.41-1.55-.28-2.47-1.59-2.51"/><polygon class="cls-4" points="115.06 30.65 113.85 30.65 114.13 29.59 117.85 29.59 117.57 30.65 116.33 30.65 115.39 34.29 114.1 34.29 115.06 30.65"/><polygon class="cls-4" points="113.72 29.59 112.67 29.59 111.88 32.62 111.16 29.59 109.71 29.59 108.5 34.29 109.59 34.29 110.34 31.34 111.09 34.29 112.53 34.29 113.72 29.59"/><path class="cls-4" d="M134.88,30.84l.12-1.14s-.63-.21-1.19-.18c-.61,.03-1.49,.49-1.59,1.38-.1,.8,.48,1.28,.72,1.55,.19,.22,.37,.58,0,.84-.27,.2-.92,.04-1.39-.23l-.15,1.15s.6,.2,1.21,.18c1.15-.04,1.8-.85,1.81-1.68-.11-.72-.37-.83-.67-1.13-.48-.48-.29-.74-.17-.87,.43-.47,1.31,.12,1.31,.12"/><path class="cls-4" d="M126.64,32.25l.27,2.04h-1.29l-.19-2.6s.16,0,.55,0c.25,0,.6-.33,.63-.62,.05-.46-.52-.43-.52-.43h-.54l-.98,3.65h-1.2l1.25-4.7h2.15c1.72,0,1.27,2.22-.14,2.67"/><path class="cls-4" d="M80.97,30.84l.12-1.14s-.63-.21-1.2-.18c-.61,.03-1.48,.49-1.59,1.38-.1,.8,.48,1.28,.72,1.55,.19,.22,.37,.58,0,.84-.27,.2-.92,.04-1.39-.23l-.15,1.15s.6,.2,1.21,.18c1.15-.04,1.8-.85,1.81-1.68-.11-.72-.37-.83-.68-1.13-.48-.48-.28-.74-.17-.87,.43-.47,1.31,.12,1.31,.12"/><path class="cls-4" d="M57.02,32.04c-.08,.49-.52,1.41-1.41,1.41h-.47l.63-2.67h.76c.7,0,.57,.8,.49,1.26m-.03-2.32h-2.16l-1.15,4.7h2.07c1.84-.13,2.38-1.78,2.53-2.55,.14-.72,.17-2.16-1.29-2.16"/><polygon class="cls-4" points="67.08 34.42 65.84 34.42 67.02 29.71 68.26 29.71 67.08 34.42"/><path class="cls-4" d="M66.21,29.72c-2.35-.51-3.41,.73-3.81,1.95-.66,2.02,.2,3.25,2.68,2.74l.4-1.13c-2.15,.68-2.15-.52-1.93-1.3,.2-.69,1.02-1.79,2.5-1.13l.15-1.12Z"/><polygon class="cls-4" points="118.6 34.29 117.36 34.29 118.54 29.59 119.78 29.59 118.6 34.29"/><polygon class="cls-4" points="73.06 29.71 72.01 29.71 71.22 32.75 70.49 29.71 69.05 29.71 67.83 34.42 68.92 34.42 69.68 31.47 70.43 34.42 71.87 34.42 73.06 29.71"/><polygon class="cls-4" points="62.5 29.71 62.24 30.78 60.31 30.78 60.12 31.56 61.78 31.56 61.52 32.6 59.88 32.6 59.67 33.44 61.59 33.44 61.36 34.42 58.18 34.42 59.33 29.71 62.5 29.71"/><path class="cls-4" d="M83.9,32.95h-1.37l-.82,1.34h-1.39l2.99-4.7h1.48l.47,4.7h-1.27l-.1-1.34Zm.01-1.04l-.07-1.32-.79,1.31h.86Z"/><path class="cls-4" d="M93.94,30.84l.12-1.14s-.63-.21-1.19-.18c-.61,.03-1.49,.49-1.59,1.38-.1,.8,.48,1.28,.72,1.55,.19,.22,.37,.58,0,.84-.26,.2-.92,.04-1.39-.23l-.15,1.15s.6,.2,1.21,.18c1.15-.04,1.8-.85,1.81-1.68-.11-.72-.37-.83-.68-1.13-.48-.48-.28-.74-.17-.87,.43-.47,1.3,.12,1.3,.12"/><polygon class="cls-4" points="123.82 29.59 123.56 30.65 121.63 30.65 121.44 31.43 123.1 31.43 122.84 32.47 121.2 32.47 120.99 33.32 122.91 33.32 122.68 34.29 119.41 34.29 120.65 29.59 123.82 29.59"/><path class="cls-4" d="M47.9,40.66c-.09-.32-.28-.72-.38-.89l-.51,.22c.14,.27,.29,.68,.37,.9l.52-.23Zm-3.01-2.82l-.09,.47h1.61l-.18,.98h-1.49l-.08,.44h1.49l-.22,1.2h-1.75l-.09,.48h4.16l.09-.48h-1.87l.22-1.2h1.64l.08-.44h-1.63l.18-.98h1.77l.09-.47h-3.92Zm-.81-1l-1.1,5.75,.57,.18,.06-.32h4.74l-.06,.32h.57l1.1-5.93h-5.88Zm4.36,5.1h-4.74l.86-4.6h4.74l-.86,4.6Z"/><path class="cls-4" d="M56.57,38.31c.01-.18,0-.46-.03-.65h1.56c-.05,.17-.19,.48-.29,.65h-1.23Zm-2.08,2.53c-.16,.07-.33,.13-.71,.26l.41-2.22h.64l.09-.51h-.64l.31-1.68h-.55l-.31,1.68h-.82l-.1,.52h.82l-.45,2.41c-.56,.16-.74,.2-.92,.24l-.02,.56c.74-.2,1.48-.42,2.2-.75l.05-.5Zm3.57,0h-2.62l.09-.46h2.62l-.09,.46Zm.85-1.68h-3.69l-.39,2.1h.77c-.22,.54-.6,.96-1.82,1.19l.2,.51c1.36-.34,1.86-.94,2.19-1.7h.72l-.22,1.15c-.03,.17-.09,.47,.4,.47h.83c.39,0,.61-.07,.86-1.18l-.49-.12c-.04,.19-.13,.57-.17,.66-.06,.11-.11,.13-.27,.13h-.48c-.14,0-.13-.03-.1-.19l.17-.92h1.09l.39-2.1Zm-3.45-1.95l-.08,.45h.58c.03,.17,.05,.46,.04,.65h-.92l-.08,.45h4.31l.08-.45h-1.02c.15-.26,.19-.37,.32-.65h.67l.08-.45h-1.77l.1-.52h-.55l-.1,.52h-1.66Zm2.75,2.8h-2.62l.08-.43h2.62l-.08,.43Z"/><path class="cls-4" d="M68.66,37.71c-1.26,0-1.8,.1-2.09,.15l-.35,2.47c-.18-.03-.48-.08-.8-.08-.84,0-1.71,.46-1.86,1.26-.08,.44,.05,1.21,1.39,1.21,.34,0,.98-.07,1.36-.55,.2-.25,.26-.58,.31-.82l.04-.2c.48,.34,.65,.46,.99,.91l.48-.54c-.39-.41-.71-.65-1.34-1.01l.32-2.15c.15-.02,.38-.05,.9-.05,.24,0,.34,0,.55,.02l.12-.62Zm-4.45-.81c-.12,.44-.19,.63-.28,.89h-1.32l-.1,.56h1.21c-.23,.55-.49,1.1-.77,1.64-.56,1.05-.85,1.42-1.07,1.69l.55,.27c.21-.3,.6-.87,.98-1.64,.34-.65,.67-1.31,.93-1.96h1.63l.1-.56h-1.52c.03-.09,.2-.54,.24-.64,.02-.05,.03-.09,.09-.23l-.68-.03Zm1.82,4.47c-.1,.54-.36,.8-1,.8-.12,0-.99,0-.87-.67,.08-.44,.55-.75,1.2-.75,.34,0,.58,.07,.75,.12l-.09,.49Z"/><path class="cls-4" d="M72.97,40.51c-.19,.1-.7,.35-.79,.81-.13,.7,.75,.79,2.24,.79,.87,0,1.26-.04,1.56-.07l-.11,.58c-.34,.03-.63,.05-1.3,.05-.8,0-1.71,0-2.31-.23-.43-.16-.77-.55-.68-1.02,.07-.36,.32-.71,.62-.95,.2-.17,.37-.25,.54-.33l.25,.37Zm2.07-3.57c-.04,.3-.06,.5-.07,.84,1.14-.06,1.59-.16,1.9-.23v.54c-.33,.07-.65,.14-1.89,.21,.02,.21,.03,.45,.1,.85,1.31-.07,1.8-.19,2.09-.26l.02,.53c-.54,.13-1.04,.18-2,.24,.19,.78,.35,1,.47,1.18l-.64,.24c-.14-.25-.3-.56-.48-1.4-.28,.01-.49,.01-1.08,.01h-2.18l.1-.53h2.2c.51,0,.66,0,.86,0-.04-.3-.06-.48-.09-.84-.3,0-.47,.01-.7,.01h-1.87l.1-.53h1.84c.26,0,.43,0,.6,0,0-.33,.02-.54,.03-.82l.66-.05Z"/><path class="cls-4" d="M87.02,36.83l-.1,.52h-5.43l-.87,4.67h5.57l-.09,.51h-5.58l-.05,.28h-.59l1.11-5.97h6.02Zm-.77,2.65l-.09,.5h-1.94c.23,.6,.92,1.07,1.85,1.29l-.4,.52c-1.51-.5-1.87-1.3-1.96-1.67-.78,1.16-1.84,1.52-2.44,1.7l-.25-.49c.85-.23,1.71-.62,2.21-1.35h-1.89l.09-.5h2.06c.04-.1,.06-.18,.1-.36l.11-.51h-1c-.4,.45-.64,.62-.82,.75l-.38-.35c.69-.47,1.16-1.03,1.41-1.52l.53,.11c-.11,.17-.18,.29-.35,.52h3.14l-.09,.49h-1.9l-.12,.51c-.04,.18-.08,.29-.1,.36h2.23Z"/><path class="cls-4" d="M93.04,36.94l-.1,.52h1.59l-.17,.92h-1.33l-.72,3.88h.55l.63-3.36h.78l-.75,4.03h.54l.75-4.03h.8l-.5,2.69c-.02,.09-.04,.13-.12,.13h-.5v.54h.65c.37,0,.43-.23,.47-.44l.64-3.44h-1.34l.17-.92h1.59l.1-.52h-3.71Zm-1.65,4.98h-1.33l.24-1.26h1.33l-.23,1.26Zm-1.02-4.53l-1.02,5.47h.54l.09-.46h1.84l.41-2.21h-1.84l.14-.75h1.77l.38-2.04h-1.07c.15-.22,.28-.44,.4-.67l-.61-.05c-.16,.33-.26,.5-.4,.72h-.62Zm1.5,1.59h-1.26l.21-1.1h1.26l-.21,1.1Z"/><path class="cls-4" d="M101.14,39.52c.22,.32,.54,.91,.69,1.4l.55-.3c-.18-.55-.54-1.1-.74-1.38l-.5,.28Zm-.11-1.07l-.09,.49h2.76l-.39,2.09c-.02,.12-.08,.15-.2,.15h-.86v.54h.9c.13,0,.28,0,.45-.11,.13-.09,.21-.24,.24-.38l.43-2.29h.81l.09-.49h-.81l.16-.84h-.56l-.16,.84h-2.76Zm-.6-1.62l-1.11,5.98h.58l.05-.27h4.77l-.05,.27h.57l1.11-5.98h-5.92Zm5.25,.52l-.87,4.68h-4.77l.87-4.68h4.77Z"/><line class="cls-2" x1="44.15" y1="35.64" x2="134.45" y2="35.64"/></svg>