<?xml version="1.0" encoding="UTF-8"?><svg id="_画像" xmlns="http://www.w3.org/2000/svg" width="70" height="50" viewBox="0 0 70 50"><defs><style>.cls-1{fill:#fff;}.cls-2{fill:#3c3c3c;}</style></defs><rect class="cls-2" x="43.5" y="15" width="21" height="21"/><path class="cls-1" d="M49.5,18.86h8.77v2.47l-3.51,2.9v.04h.23c1.04,0,1.88,.32,2.51,.97,.63,.65,.95,1.52,.95,2.63,0,1.39-.43,2.46-1.28,3.2-.85,.74-2.08,1.12-3.67,1.12s-2.92-.34-4.18-1.03l.76-2.34c1.21,.62,2.27,.94,3.17,.94,.7,0,1.24-.16,1.62-.49,.38-.32,.58-.77,.58-1.35s-.23-1-.69-1.25-1.32-.37-2.58-.37h-.9v-2.05l3.33-2.88v-.04h-5.09v-2.47Z"/></svg>