<svg id="画像" xmlns="http://www.w3.org/2000/svg" width="70" height="50" viewBox="0 0 70 50"><defs><style>.cls-1{fill:#55323c;}.cls-2{fill:#fff;}</style></defs><rect class="cls-1" x="43.5" y="15" width="21" height="21"/><path class="cls-2" d="M49.5,18.86h8.77v2.47l-3.51,2.89v0H55a3.34,3.34,0,0,1,2.51,1,3.63,3.63,0,0,1,1,2.63,4,4,0,0,1-1.28,3.2,5.39,5.39,0,0,1-3.67,1.12,8.55,8.55,0,0,1-4.18-1l.76-2.34a7,7,0,0,0,3.16.94,2.39,2.39,0,0,0,1.62-.49,1.64,1.64,0,0,0,.58-1.35,1.31,1.31,0,0,0-.69-1.25,6.27,6.27,0,0,0-2.59-.37h-.9V24.24l3.33-2.88v0H49.5Z"/></svg>