<?xml version="1.0" encoding="UTF-8"?><svg xmlns="http://www.w3.org/2000/svg" width="350" height="150" viewBox="0 0 350 150"><defs><style>.cls-1{fill:#39261f;}.cls-1,.cls-2,.cls-3,.cls-4{stroke-width:0px;}.cls-5{isolation:isolate;}.cls-2{fill:#fff;}.cls-3{fill:#eb9bc1;}.cls-4{mix-blend-mode:multiply;opacity:.3;}</style></defs><g class="cls-5"><g id="_画像"><path class="cls-1" d="m303.1,105.57c-.03-.12-.08-.41-.11-.93-.07-1.25-.09-2.57-.11-3.91-.07-5.12-.17-12.61-4.35-16.78l-2.65-2.65c-1.9-1.9-4.63-3.12-8.59-3.12-2.12,0-4.01.49-5.69,1.48-.11-.1-.25-.18-.37-.27,2.49-2.35,4.5-5.25,5.81-8.55,2.83-.8,4.29-2.87,4.47-4.94l.29-3.2c.14-1.63-.46-3.11-1.6-4.25l-2.12-2.12c-.18-.78-.4-1.55-.65-2.29,1.26-.33,2.43-.99,3.37-1.94,2.95-2.94,2.91-7.78-.08-10.78l-2.66-2.66-5.24-5.23c-1.47-1.48-3.42-2.28-5.48-2.28s-3.89.77-5.3,2.17c-.96.96-1.61,2.13-1.93,3.35-2.54-.88-5.2-1.35-7.92-1.35-9.54,0-17.78,5.61-21.64,13.7-.59-2.52-1.78-4.57-3.35-6.14l-2.66-2.66s.05.05.07.08c-2.83-2.88-6.89-4.24-10.79-4.24-2.73,0-6.41.83-9.64,2.48-.14-.16-.28-.32-.43-.47l-2.66-2.66c.13.13.24.26.36.39-3.46-3.84-10.56-5.78-21.25-5.78-20.02,0-23.02,8.43-23.03,13.44,0,3.06,1.05,5.01,2.36,6.29-.02-.02-.04-.03-.07-.05l2.66,2.66c1.02,1.03,2.21,1.62,3.18,2.01.03.44.04.97,0,1.62-.21,5.51.03,11.07.25,16.43.18,4.23.38,8.91.24,12.83-.71-1.43-1.62-2.7-2.7-3.78l-2.66-2.66c.1.1.19.21.28.31-.59-.63-1.23-1.2-1.91-1.71.48-1.07.67-2.19.67-3.25,0-1.99-.58-3.57-1.77-4.75l-2.66-2.66s.02.03.03.04c-.15-.15-.32-.29-.49-.43-2.27-5.82-8.27-20.16-9.15-21.92-1.07-2.14-2.65-5.3-5.05-7.7l-2.66-2.66c.09.09.16.18.24.26-1.96-2.05-4.47-3.6-7.72-3.6-5.89,0-9.7,3.75-10.19,9.89-.8-1.73-1.82-3.27-3-4.45l-2.66-2.66s.02.02.03.03c-1.63-1.64-3.54-2.63-5.49-2.63-1.41,0-2.31.26-3.17.55-.49.12-1.08.22-2.37.22h-11.48c-1.41,0-2.35-.15-3.03-.29l-.45-.11c-.74-.19-1.43-.37-2.26-.37-4.48,0-7.89,4.56-9.53,9.39l-2.27-2.27c.5.5.97,1.02,1.42,1.57-5.1-6.23-13.44-9.13-21.73-9.13-2.07,0-4.16.1-6.17.19-.95.04-1.88.1-2.81.12l-.36.03c-2.88.21-5.6.4-8.28.4-1.52,0-3.23-.19-5-.4h-.27c-.62-.05-1.22-.1-1.83-.15-1.29-.1-2.62-.19-4.06-.19-14.18,0-15.29,8.57-15.29,11.19,0,3.22,1.17,5.1,2.43,6.27-.07-.07-.14-.12-.21-.19.89.89,1.78,1.78,2.66,2.66.45.45.92.8,1.36,1.08.37,1.19.64,3.16.63,6.51l-.04,30.44c0,6.16-1.28,7.1-2.64,8.09-1.46,1.06-4.18,3.02-4.18,7.51,0,3.02.99,5.48,2.96,7.4-.03-.03-.08-.06-.11-.09.89.89,1.78,1.78,2.66,2.66,3.37,3.37,9.71,5.07,18.96,5.07,6.88,0,19.13-.02,21.22-8.63.5.64,1.04,1.24,1.62,1.81-.06-.06-.13-.11-.19-.17l2.66,2.66c3.28,3.28,8,5.29,15.07,5.29,8.85,0,14.39-2.94,17.08-6.83l2.44,2.44c1.84,1.84,5.1,2.77,9.76,2.77,3.1,0,5.36-.48,7.02-1.23,1.5.74,3.56,1.24,6.42,1.24h.19c3.16,0,5.44-.51,7.07-1.28.5.29,1.04.54,1.63.73,1.54.48,3.16.55,4.38.55h.32c5.07,0,8.03-.81,9.92-2.7,1.21-1.21,1.83-2.76,1.82-4.63,0-.74-.11-1.37-.27-1.93l1.39,1.39c6.01,6.01,15.36,8.85,24.3,8.85,7.06,0,17.31-2.56,23.87-10.56.43.93,1.06,1.79,1.86,2.57-.02-.02-.04-.04-.06-.06l2.66,2.66c2.75,2.75,7.55,4.49,13.25,4.49,7.85,0,10.65-4.33,10.65-8.03,0-.54-.04-1.02-.13-1.47,1.47-.19,2.83-.64,4.1-1.27.62,2,1.69,3.63,3.04,4.91-.07-.07-.14-.12-.21-.19l2.66,2.66c2.35,2.35,5.62,3.55,8.87,3.55,2.31,0,4.37-.55,6.29-1.66,1.21.88,2.96,1.66,5.44,1.66s4.65-.85,6.58-2.21c1.68,1.2,4.28,2.05,8.31,2.05h.38c3.95,0,6.67-.67,8.51-1.66.66.44,1.4.78,2.24,1.04,1.72.55,3.49.62,4.97.62h.37c5.81,0,9.19-.88,11.26-2.97,1.92-1.92,1.91-4.13,1.91-4.9,0-2.79-1.33-4.26-2.04-5.04Z"/><polygon class="cls-4" points="66.13 75.4 38.8 75.4 38.8 41.17 77.02 41.17 77.02 64.5 66.13 75.4"/><path class="cls-2" d="m113.41,36.25c2.01,0,2.94-.22,3.64-.38.65-.22,1.03-.38,1.91-.38,1.82,0,5.61,4.23,5.61,10.16,0,2.75-1.21,4.56-3.6,4.56-4.06,0-4.02-6.48-6.4-6.48-1.82,0-1.64,2.97-1.64,3.41v16.87c0,6.54,4.3,3.41,4.3,7.25,0,1.7-.89,4.12-9.62,4.12-2.38,0-11.11.11-11.11-4.12,0-2.91,2.89-1.76,3.83-3.85.47-1.15.65-4.45.7-5.82l.37-12.14c.19-5.77-.79-5.72-1.45-5.72-2.1,0-3.13,6.48-6.91,6.48-1.82,0-2.89-1.98-2.89-3.96,0-4.67,3.36-10.77,6.02-10.77.33,0,.84.16,1.73.38.89.16,2.15.38,4.02.38h11.49Z"/><path class="cls-2" d="m131.26,54.93c1.45-3.79,3.36-8.62,3.36-12.96,0-3.79,1.49-6.65,5.65-6.65s6.63,4.89,8.45,8.51c.79,1.59,7.85,18.4,9.53,22.91,1.54,4.18,4.06,1.65,4.06,4.78,0,4.01-6.63,3.85-8.97,3.85-6.68,0-10.69-.06-10.69-3.46,0-2.64,2.85-1.65,2.85-3.57,0-2.47-1.17-2.69-8.69-2.69-2.43,0-3.88.11-3.88,2.8,0,2.14,2.99.71,2.99,3.57,0,3.3-5.04,3.35-6.91,3.35-6.68,0-7.28-1.48-7.28-3.24,0-2.58,2.52-1.81,3.88-3.79,1.03-1.48,2.01-4.12,2.71-5.88l2.94-7.53Zm9.81,3.96c.47,0,1.87.11,1.87-.72s-1.36-3.68-1.73-4.45c-.42-.88-1.21-2.91-2.24-2.91-1.12,0-1.91,3.29-2.1,3.9-.19.61-.98,2.75-.98,3.41,0,.93,1.17.77,1.68.77h3.5Z"/><path class="cls-2" d="m115.93,102.2c0,5.4,2.3,3.43,2.3,5.86,0,3.11-4.94,3.11-6.69,3.11-6.69,0-6.97-1.79-6.97-2.89,0-1.65,1.6-1.74,2.06-3.16.51-1.6.58-8.24.16-9.94-.35-1.6-2.34-1.1-2.34-3.16,0-3.25,9.89-4.63,10.28-4.63,1.17,0,1.21,1.05,1.21,2.01v12.78Zm-7.71-16.26c-1.64,0-3.39-.87-3.39-3.11,0-3.02,5.14-4.26,7.12-4.26,1.56,0,3.78.6,3.78,2.89,0,3.57-5.29,4.49-7.51,4.49Z"/><path class="cls-2" d="m130.26,103.03c0,4.44,1.32,3.66,1.32,5.4,0,2.84-5.18,2.75-6.77,2.75s-5.53,0-5.53-2.75c0-2.2,1.79-.23,1.91-4.72l.16-6.87c.08-3.39-2.3-2.29-2.3-4.72s8.95-4.72,9.73-4.72c.86,0,1.4.87,1.4,1.79,0,.27-.04.55-.04.82,0,.55.2,1.19.78,1.19.62,0,.97-.96,1.75-1.92.78-.92,1.95-1.88,4.16-1.88,8.06,0,6.69,9.3,7.08,16.26.2,3.62,1.79,2.79,1.79,4.76,0,.82.16,2.75-7.16,2.75-1.4,0-5.14.09-5.14-2.47,0-1.65,1.28-.87,1.48-3.85.19-3.25,1.28-10.58-2.37-10.58-2.49,0-2.26,3.16-2.26,5.22v3.53Z"/><path class="cls-2" d="m201.35,87.38c-.55,22.66-20.52,24.79-25.61,24.79-10.53,0-26.24-5.13-26.24-20.41,0-6.95,4.09-12.82,10.17-12.82,5.27,0,10.53,3.85,10.53,10.58,0,1.82-.64,3.63-.64,5.02,0,2.67,1.82,4.17,4,3.95,10.72-1.28,5.63-23.08,6.36-42.32.45-11.86-8.17-5.55-8.17-12.72,0-2.03.73-8.87,18.44-8.87s19.16,4.92,19.16,7.91c0,5.56-7.08,2.99-7.27,11.96l-.73,32.91Z"/><path class="cls-2" d="m233.78,55.58c0,9.67,2.8,4.4,2.8,7.36,0,3.13-3.64,6.54-7.05,6.54-3.69,0-3.78-2.8-4.95-2.8-.56,0-1.17.72-2.2,1.37-1.03.71-2.43,1.43-4.58,1.43-3.88,0-7.75-2.42-7.75-7.86,0-3.9,3.18-8.73,11.39-8.73,1.45,0,2.1.11,2.1-1.86,0-1.82-.05-5.61-2.19-5.61-2.8,0-3.08,5.93-7.24,5.93-1.49,0-2.61-1.26-2.61-3.02,0-4.67,7.89-7.69,12.33-7.69,2.66,0,9.95,1.21,9.95,9.45v5.49Zm-14.01,4.84c0,1.43.65,2.97,2.01,2.97,1.77,0,1.91-2.25,1.91-3.9,0-1.21.05-2.58-1.26-2.58-1.59,0-2.66,1.76-2.66,3.52Z"/><path class="cls-2" d="m209.54,90.24c0-5.77-.28-7.03-.51-7.31-.61-.72-3.13,0-3.13-3.13,0-3.74,9.62-6.59,13.08-6.59,1.12,0,1.31.44,1.31,1.65,0,.38.05,1.16.51,1.16.65,0,3.27-2.97,7.1-2.97,6.12,0,9.39,7.2,9.39,13.63,0,7.36-4.44,15.22-11.25,15.22-2.2,0-4.39-1.37-4.81-1.37-.65,0-.75,1.15-.75,1.76,0,4.18,2.89,2.86,2.89,5.55,0,3.08-4.25,3.46-6.07,3.46-6.26,0-11.16-2.69-11.16-5.49,0-2.47,1.91-1.54,2.75-3.68.47-1.15.65-2.75.65-8.85v-3.02Zm12.8-9.07c-1.68,0-2.24.82-2.24,10.83,0,1.81.75,2.47,2.38,2.47,2.89,0,3.27-3.68,3.27-6.32s-.47-6.98-3.41-6.98Z"/><path class="cls-2" d="m262.24,97.54c0,9.67,2.8,4.4,2.8,7.36,0,3.13-3.64,6.54-7.05,6.54-3.69,0-3.78-2.8-4.95-2.8-.56,0-1.17.72-2.2,1.37-1.03.71-2.43,1.43-4.58,1.43-3.88,0-7.75-2.42-7.75-7.86,0-3.9,3.18-8.74,11.39-8.74,1.45,0,2.1.11,2.1-1.87,0-1.81-.05-5.6-2.19-5.6-2.8,0-3.08,5.93-7.24,5.93-1.49,0-2.61-1.26-2.61-3.02,0-4.67,7.89-7.69,12.33-7.69,2.66,0,9.95,1.21,9.95,9.45v5.49Zm-14.01,4.84c0,1.43.65,2.97,2.01,2.97,1.77,0,1.91-2.25,1.91-3.9,0-1.21.05-2.58-1.26-2.58-1.59,0-2.66,1.76-2.66,3.52Z"/><path class="cls-2" d="m279.42,101.5c0,5.33,1.59,4.4,1.59,6.48,0,3.41-6.21,3.3-8.13,3.3s-6.63,0-6.63-3.3c0-2.64,2.15-.27,2.29-5.66l.19-8.24c.09-4.07-2.76-2.75-2.76-5.66s10.74-5.66,11.68-5.66c1.03,0,1.68,1.04,1.68,2.14,0,.33-.05.66-.05.99,0,.66.23,1.43.93,1.43.75,0,1.17-1.16,2.1-2.31.93-1.1,2.34-2.25,5-2.25,9.67,0,8.03,11.15,8.5,19.5.23,4.34,2.15,3.35,2.15,5.72,0,.99.19,3.3-8.59,3.3-1.68,0-6.17.11-6.17-2.97,0-1.98,1.54-1.04,1.78-4.62.23-3.9,1.54-12.69-2.85-12.69-2.99,0-2.71,3.79-2.71,6.26v4.23Z"/><path class="cls-2" d="m51.52,63.96c.36,1.59,1.91,6.68,7.28,6.68.5,0,1.03-.04,1.57-.13,5.1-.79,7.97-6.71,8.49-9.97-.94-.29-2.34-.46-3.95-.46-5.64,0-11.97,1.87-13.39,3.87Z"/><path class="cls-2" d="m89.75,94.01c-1.27-11.54-4.09-16.46-10.44-19.23-1.09-.54-2.27-.96-2.27-2.57,0-1.28.64-1.6,1.45-2.14,5.09-2.88,7.72-9.08,7.72-15.49,0-14.21-11.9-19.55-22.16-19.55-2.91,0-5.9.21-8.81.32-3,.21-5.9.43-8.81.43-1.82,0-3.72-.21-5.54-.43-1.91-.11-3.72-.32-5.63-.32-3.63,0-10.72.75-10.72,6.62,0,6.62,6.9-.21,6.9,16.35v30.46c0,13.89-6.81,10.05-6.81,15.6,0,7.8,12.9,7.8,17.25,7.8,14.71,0,16.98-2.88,16.98-6.73,0-5.13-4.63-3.63-5.36-8.55-.45-2.99-.64-7.27-.64-10.37,0-6.73.73-7.05,2.72-7.05,5,0,6.54,4.81,7.54,9.73,2.81,14.1,4.63,23.94,19.16,23.94,10.26,0,14.44-4.28,14.44-8.34,0-6.52-5.9-.53-6.99-10.47Zm-44.22-38.76c-.19.05-.38.07-.57.07-1.02,0-1.95-.69-2.22-1.72-.09-.36-.89-3.54-.83-5.59.04-1.26,1.09-2.28,2.35-2.22,1.26.04,2.26,1.09,2.22,2.35-.03,1.07.41,3.22.69,4.32.32,1.23-.42,2.47-1.65,2.79Zm15.31,18.29c-.7.11-1.38.16-2.04.16-7.12,0-9.91-6.39-10.39-9.77-.04-.27,0-.55.1-.8,1.76-4.2,10.65-6.09,16.4-6.09,1.98,0,4.69.22,6.36,1.26.45.28.72.77.72,1.3,0,4.26-3.83,12.81-11.16,13.94Zm14.59-23.51c-.19.67-.8,1.1-1.46,1.1-.14,0-.29-.02-.43-.06-.19-.05-4.58-1.35-7.04-2.7-.45-.25-.75-.71-.78-1.23-.04-.52.19-1.01.6-1.33,1.56-1.18,5.79-3.11,6.26-3.32.77-.35,1.67,0,2.02.76.35.77,0,1.67-.76,2.02-.67.3-2.02.93-3.26,1.58,1.9.73,3.8,1.28,3.83,1.29.81.24,1.27,1.08,1.04,1.89Z"/><path class="cls-2" d="m280.75,46.21c1.22,1.11,3.07,1.14,4.2,0,1.16-1.16,1.11-3.1-.1-4.31l-5.24-5.24c-1.21-1.21-3.15-1.26-4.31-.1-1.13,1.13-1.11,2.99.01,4.21l-2.39,2.39c-3.07-2.05-6.76-3.24-10.72-3.24-10.7,0-19.4,8.7-19.41,19.4,0,10.7,8.71,19.4,19.4,19.4,9.11,0,16.75-6.32,18.83-14.8l.25.02c1.63.14,3.02-.34,3.08-1.08l.28-3.19c.06-.73-1.22-1.46-2.85-1.6l-.25-.02c-.23-3.48-1.35-6.71-3.18-9.45l2.39-2.39Zm-18.55,25.63c-6.91,0-12.53-5.62-12.53-12.53,0-6.91,5.62-12.52,12.53-12.52,6.9,0,12.52,5.61,12.52,12.52,0,6.91-5.62,12.52-12.52,12.53Z"/><path class="cls-2" d="m263.34,58.31c-.28-.32-.68-.53-1.14-.53,0,0,0,0,0,0l-4.48-7.76c-.21-.37-.67-.49-1.04-.28-.37.21-.49.68-.28,1.04l4.49,7.78c-.13.22-.22.47-.22.75,0,.85.69,1.54,1.54,1.54.46,0,.85-.21,1.13-.52l6.69,1.47,3.11-2.49-3.11-2.49-6.69,1.47Z"/><path class="cls-3" d="m42.17,70.12c-.91-.41-1.72-.88-2.47-1.37,1.45-.81,2.51-1.35,2.53-1.36.75-.38,1.05-1.3.67-2.05-.38-.75-1.3-1.05-2.05-.67-.08.04-.9.46-2.06,1.1.08-.55.16-1.07.24-1.51.15-.83-.4-1.62-1.22-1.78-.84-.15-1.63.4-1.78,1.22-.04.2-.15.85-.28,1.73-.4-.43-.63-.72-.64-.73-.51-.67-1.47-.8-2.14-.29-.67.51-.8,1.47-.29,2.14.05.07.63.82,1.67,1.83-.61.39-1.21.79-1.79,1.2-.69.49-.85,1.44-.36,2.13.3.42.77.64,1.25.64.31,0,.61-.09.88-.28.31-.22.64-.44.97-.66.02.69.09,1.32.22,1.85.17.7.8,1.16,1.48,1.16.12,0,.24-.01.37-.04.82-.2,1.32-1.03,1.12-1.85-.06-.26-.1-.6-.12-.98.78.49,1.63.95,2.54,1.37.2.09.42.13.63.13.58,0,1.14-.34,1.39-.9.35-.77,0-1.67-.77-2.02Z"/></g></g></svg>