<?xml version="1.0" encoding="UTF-8"?><svg id="_内容" xmlns="http://www.w3.org/2000/svg" width="420" height="55" viewBox="0 0 420 55"><defs><style>.cls-1{fill:#fff;}.cls-2{fill:#ffff89;}</style></defs><rect class="cls-1" x="0" y="52" width="420" height="3"/><path class="cls-1" d="M23.52,31.4h9.14v2.74h-5.74v3.32h5.34v2.56h-5.34v5.98h-3.4v-14.6Z"/><path class="cls-1" d="M38.69,35.4c1.67,0,2.86.32,3.57.95.71.63,1.07,1.67,1.07,3.11v3.74c0,.96.1,1.89.3,2.8h-3.04c-.11-.6-.17-1.09-.2-1.46h-.04c-.36.51-.84.91-1.45,1.21-.61.3-1.24.45-1.91.45-1,0-1.8-.28-2.4-.84-.6-.56-.9-1.33-.9-2.3,0-1.15.49-2.07,1.47-2.76.98-.69,2.39-1.04,4.23-1.04h.74v-.04c0-.59-.12-.99-.35-1.22s-.64-.34-1.23-.34c-1.36,0-2.66.3-3.9.9l-.42-2.26c1.35-.6,2.83-.9,4.46-.9ZM36.61,42.76c0,.36.11.64.33.84.22.2.52.3.89.3.67,0,1.22-.21,1.65-.62.43-.41.65-.94.65-1.58v-.48h-.74c-.91,0-1.6.14-2.07.42-.47.28-.71.65-.71,1.12Z"/><path class="cls-1" d="M45.75,35.6h2.96l.08,1.44h.04c.39-.51.86-.91,1.43-1.2.57-.29,1.15-.44,1.75-.44,1.25,0,2.17.37,2.74,1.1.57.73.86,1.99.86,3.76v5.74h-3.16v-5.4c0-1.08-.11-1.8-.34-2.17-.23-.37-.63-.55-1.2-.55-.49,0-.94.27-1.35.8-.41.53-.61,1.15-.61,1.86v5.46h-3.2v-10.4Z"/><path class="cls-1" d="M63.57,46l4.94-14.6h3.6l4.92,14.6h-3.6l-.86-3.16h-4.62l-.84,3.16h-3.54ZM68.65,40.26h3.24l-1.6-5.92h-.04l-1.6,5.92Z"/><path class="cls-1" d="M78.53,35.6h3.04l.02,2h.04c1.16-1.47,2.75-2.2,4.76-2.2v2.56c-1.49,0-2.63.32-3.42.96s-1.18,1.51-1.18,2.62v4.46h-3.26v-10.4Z"/><path class="cls-1" d="M93.24,36h3.4v2.26h-3.4v3.74c0,.72.09,1.2.26,1.44.17.24.49.36.94.36.57,0,1.17-.11,1.8-.32l.36,2.32c-.95.27-1.92.4-2.92.4-1.28,0-2.22-.29-2.81-.86-.59-.57-.89-1.51-.89-2.8v-4.28h-2.14v-2.26h2.14v-3.8h3.26v3.8Z"/><path class="cls-2" d="M9.14,48.14c-.2,0-.38-.13-.43-.33-1.56-5.65-2.74-6.83-8.39-8.39C.13,39.38,0,39.2,0,39s.13-.38.33-.43c5.65-1.56,6.83-2.74,8.39-8.39.05-.19.23-.33.43-.33h0c.2,0,.38.13.43.33,1.56,5.65,2.74,6.83,8.39,8.39.19.05.33.23.33.43s-.13.38-.33.43c-5.65,1.56-6.83,2.74-8.39,8.39-.05.19-.23.33-.43.33Z"/></svg>