<?xml version="1.0" encoding="UTF-8"?><svg id="_内容" xmlns="http://www.w3.org/2000/svg" width="220" height="43" viewBox="0 0 220 43"><defs><style>.cls-1{fill:#eb9bc1;}</style></defs><path d="M35.46,23.5c0,2.45-.68,4.35-2.03,5.69-1.35,1.34-3.26,2.01-5.71,2.01-1.48,0-2.88-.1-4.2-.3v-14.4c1.32-.2,2.72-.3,4.2-.3,2.45,0,4.36.64,5.71,1.93,1.35,1.29,2.03,3.08,2.03,5.37ZM32.22,23.5c0-3.09-1.41-4.64-4.24-4.64-.39,0-.76.04-1.12.12v9.44c.36.08.73.12,1.12.12,2.83,0,4.24-1.68,4.24-5.04Z"/><path d="M38.09,21.85c.95-.97,2.25-1.45,3.92-1.45s2.97.48,3.91,1.45c.94.97,1.41,2.28,1.41,3.95s-.47,2.98-1.41,3.95c-.94.97-2.24,1.45-3.91,1.45s-2.97-.48-3.92-1.45c-.95-.97-1.42-2.28-1.42-3.95s.47-2.98,1.42-3.95ZM42.01,28.86c1.44,0,2.16-1.02,2.16-3.06s-.72-3.06-2.16-3.06-2.18,1.02-2.18,3.06.73,3.06,2.18,3.06Z"/><path d="M49.1,20.6h2.96l.08,1.44h.04c.39-.51.86-.91,1.43-1.2.57-.29,1.15-.44,1.75-.44,1.25,0,2.17.37,2.74,1.1.57.73.86,1.99.86,3.76v5.74h-3.16v-5.4c0-1.08-.11-1.8-.34-2.17-.23-.37-.63-.55-1.2-.55-.49,0-.94.27-1.35.8-.41.53-.61,1.15-.61,1.86v5.46h-3.2v-10.4Z"/><path d="M65.71,20.4c1.67,0,2.86.32,3.57.95.71.63,1.07,1.67,1.07,3.11v3.74c0,.96.1,1.89.3,2.8h-3.04c-.11-.6-.17-1.09-.2-1.46h-.04c-.36.51-.84.91-1.45,1.21-.61.3-1.24.45-1.91.45-1,0-1.8-.28-2.4-.84-.6-.56-.9-1.33-.9-2.3,0-1.15.49-2.07,1.47-2.76.98-.69,2.39-1.04,4.23-1.04h.74v-.04c0-.59-.12-.99-.35-1.22s-.64-.34-1.23-.34c-1.36,0-2.66.3-3.9.9l-.42-2.26c1.35-.6,2.83-.9,4.46-.9ZM63.63,27.76c0,.36.11.64.33.84.22.2.52.3.89.3.67,0,1.22-.21,1.65-.62.43-.41.65-.94.65-1.58v-.48h-.74c-.91,0-1.6.14-2.07.42-.47.28-.71.65-.71,1.12Z"/><path d="M77.42,21h3.4v2.26h-3.4v3.74c0,.72.09,1.2.26,1.44.17.24.49.36.94.36.57,0,1.17-.11,1.8-.32l.36,2.32c-.95.27-1.92.4-2.92.4-1.28,0-2.22-.29-2.81-.86-.59-.57-.89-1.51-.89-2.8v-4.28h-2.14v-2.26h2.14v-3.8h3.26v3.8Z"/><path d="M83.25,18.6v-2.6h3.38v2.6h-3.38ZM83.25,31v-10.4h3.38v10.4h-3.38Z"/><path d="M90.09,21.85c.95-.97,2.25-1.45,3.92-1.45s2.97.48,3.91,1.45c.94.97,1.41,2.28,1.41,3.95s-.47,2.98-1.41,3.95c-.94.97-2.24,1.45-3.91,1.45s-2.97-.48-3.92-1.45c-.95-.97-1.42-2.28-1.42-3.95s.47-2.98,1.42-3.95ZM94.01,28.86c1.44,0,2.16-1.02,2.16-3.06s-.72-3.06-2.16-3.06-2.18,1.02-2.18,3.06.73,3.06,2.18,3.06Z"/><path d="M101.11,20.6h2.96l.08,1.44h.04c.39-.51.86-.91,1.43-1.2.57-.29,1.15-.44,1.75-.44,1.25,0,2.17.37,2.74,1.1.57.73.86,1.99.86,3.76v5.74h-3.16v-5.4c0-1.08-.11-1.8-.34-2.17-.23-.37-.63-.55-1.2-.55-.49,0-.94.27-1.35.8-.41.53-.61,1.15-.61,1.86v5.46h-3.2v-10.4Z"/><path d="M131.42,22.06h-.04l-2.56,5.6h-3.08l-2.56-5.6h-.04v8.94h-3.22v-14.6h3.48l3.86,8.6h.04l3.86-8.6h3.56v14.6h-3.3v-8.94Z"/><path d="M139.88,26.86c.09.65.37,1.16.83,1.53.46.37,1.06.55,1.79.55.99,0,1.95-.24,2.9-.72l.7,2.18c-1.19.53-2.49.8-3.9.8-1.65,0-2.98-.49-3.99-1.46s-1.51-2.29-1.51-3.94.47-2.98,1.4-3.95c.93-.97,2.19-1.45,3.76-1.45s2.87.46,3.76,1.39,1.34,2.25,1.34,3.97c0,.41-.03.78-.08,1.1h-7ZM139.86,24.88h4.12c-.01-1.53-.69-2.3-2.04-2.3-.61,0-1.1.2-1.46.59-.36.39-.57.96-.62,1.71Z"/><path d="M156.51,23.42c-1.13-.47-2.25-.7-3.34-.7-.61,0-1.04.07-1.29.21-.25.14-.37.35-.37.63s.11.48.33.63.61.27,1.17.35c1.56.2,2.68.58,3.35,1.14.67.56,1.01,1.33,1.01,2.32s-.38,1.77-1.15,2.34-1.87.86-3.31.86c-1.69,0-3.23-.33-4.6-1l.6-2.32c1.15.65,2.39.98,3.74.98,1.01,0,1.52-.31,1.52-.92,0-.27-.1-.47-.29-.6-.19-.13-.6-.25-1.21-.34-1.53-.24-2.63-.64-3.3-1.21-.67-.57-1-1.33-1-2.29s.38-1.7,1.15-2.26c.77-.56,1.9-.84,3.39-.84s2.85.25,4.2.74l-.6,2.28Z"/><path d="M167.01,23.42c-1.13-.47-2.25-.7-3.34-.7-.61,0-1.04.07-1.29.21-.25.14-.37.35-.37.63s.11.48.33.63.61.27,1.17.35c1.56.2,2.68.58,3.35,1.14.67.56,1.01,1.33,1.01,2.32s-.38,1.77-1.15,2.34-1.87.86-3.31.86c-1.69,0-3.23-.33-4.6-1l.6-2.32c1.15.65,2.39.98,3.74.98,1.01,0,1.52-.31,1.52-.92,0-.27-.1-.47-.29-.6-.19-.13-.6-.25-1.21-.34-1.53-.24-2.63-.64-3.3-1.21-.67-.57-1-1.33-1-2.29s.38-1.7,1.15-2.26c.77-.56,1.9-.84,3.39-.84s2.85.25,4.2.74l-.6,2.28Z"/><path d="M174.31,20.4c1.67,0,2.86.32,3.57.95.71.63,1.07,1.67,1.07,3.11v3.74c0,.96.1,1.89.3,2.8h-3.04c-.11-.6-.17-1.09-.2-1.46h-.04c-.36.51-.84.91-1.45,1.21-.61.3-1.24.45-1.91.45-1,0-1.8-.28-2.4-.84-.6-.56-.9-1.33-.9-2.3,0-1.15.49-2.07,1.47-2.76.98-.69,2.39-1.04,4.23-1.04h.74v-.04c0-.59-.12-.99-.35-1.22s-.64-.34-1.23-.34c-1.36,0-2.66.3-3.9.9l-.42-2.26c1.35-.6,2.83-.9,4.46-.9ZM172.23,27.76c0,.36.11.64.33.84.22.2.52.3.89.3.67,0,1.22-.21,1.65-.62.43-.41.65-.94.65-1.58v-.48h-.74c-.91,0-1.6.14-2.07.42-.47.28-.71.65-.71,1.12Z"/><path d="M184.86,20.4c1.27,0,2.32.55,3.16,1.64h.04l.06-1.44h2.98v9.26c0,1.91-.49,3.34-1.48,4.3-.99.96-2.44,1.44-4.36,1.44-1.23,0-2.39-.2-3.5-.6l.54-2.32c.93.39,1.87.58,2.82.58,1.01,0,1.74-.25,2.18-.75.44-.5.66-1.37.66-2.61v-.56h-.02c-.76.97-1.79,1.46-3.08,1.46-1.17,0-2.15-.47-2.93-1.4-.78-.93-1.17-2.2-1.17-3.8s.37-2.93,1.11-3.84c.74-.91,1.74-1.36,2.99-1.36ZM183.82,25.6c0,.88.18,1.57.55,2.06.37.49.85.74,1.45.74s1.13-.23,1.51-.7.57-1.13.57-2v-.2c0-.85-.19-1.52-.57-1.99-.38-.47-.88-.71-1.51-.71s-1.12.24-1.47.71c-.35.47-.53,1.17-.53,2.09Z"/><path d="M196.06,26.86c.09.65.37,1.16.83,1.53.46.37,1.06.55,1.79.55.99,0,1.95-.24,2.9-.72l.7,2.18c-1.19.53-2.49.8-3.9.8-1.65,0-2.98-.49-3.99-1.46s-1.51-2.29-1.51-3.94.47-2.98,1.4-3.95c.93-.97,2.19-1.45,3.76-1.45s2.87.46,3.76,1.39,1.34,2.25,1.34,3.97c0,.41-.03.78-.08,1.1h-7ZM196.04,24.88h4.12c-.01-1.53-.69-2.3-2.04-2.3-.61,0-1.1.2-1.46.59-.36.39-.57.96-.62,1.71Z"/><path class="cls-1" d="M13.27,15c-1.88,0-3.51,1.3-4.27,3.17-.76-1.87-2.38-3.17-4.27-3.17-2.61,0-4.73,2.49-4.73,5.56,0,8.66,9,12.44,9,12.44,0,0,9-3.78,9-12.44,0-3.07-2.12-5.56-4.73-5.56Z"/></svg>