<svg xmlns="http://www.w3.org/2000/svg" width="350" height="150" viewBox="0 0 350 150"><defs><style>.cls-1{isolation:isolate;}.cls-2{fill:#25303a;}.cls-3{mix-blend-mode:multiply;opacity:0.3;}.cls-4{fill:#fff;}.cls-5{fill:#eb9bc1;}</style></defs><g class="cls-1"><g id="画像"><path class="cls-2" d="M303.1,105.57a5.6,5.6,0,0,1-.11-.93c-.06-1.25-.09-2.57-.1-3.92-.07-5.11-.18-12.6-4.36-16.78l-2.65-2.65c-1.9-1.91-4.63-3.13-8.59-3.13a11,11,0,0,0-5.69,1.49c-.12-.1-.25-.18-.37-.27a23.9,23.9,0,0,0,5.82-8.55,5.73,5.73,0,0,0,4.46-4.94l.3-3.2a5.27,5.27,0,0,0-1.6-4.25l-2.12-2.12c-.18-.78-.4-1.55-.65-2.29a7.28,7.28,0,0,0,3.36-1.94,7.63,7.63,0,0,0-.08-10.78l-2.66-2.66-5.24-5.23a7.67,7.67,0,0,0-5.48-2.28,7.5,7.5,0,0,0-5.3,2.17,7.3,7.3,0,0,0-1.92,3.35A23.95,23.95,0,0,0,240.55,49a12.63,12.63,0,0,0-3.35-6.14l-2.67-2.66.08.08A15.17,15.17,0,0,0,223.82,36a22.74,22.74,0,0,0-9.64,2.48l-.43-.47-2.66-2.66.35.39C208,31.94,200.88,30,190.2,30c-20,0-23,8.43-23,13.44a8.34,8.34,0,0,0,2.36,6.29l-.06,0,2.66,2.66a9.25,9.25,0,0,0,3.19,2c0,.44,0,1,0,1.63-.21,5.5,0,11.06.26,16.43.18,4.23.38,8.91.24,12.83a14.35,14.35,0,0,0-2.7-3.78l-2.67-2.66c.1.1.19.21.28.31a14.69,14.69,0,0,0-1.9-1.72,7.85,7.85,0,0,0,.66-3.25,6.38,6.38,0,0,0-1.76-4.75l-2.67-2.66,0,0c-.15-.15-.32-.29-.48-.43-2.28-5.81-8.28-20.16-9.15-21.91a29.51,29.51,0,0,0-5.05-7.7l-2.66-2.66.24.26a10.49,10.49,0,0,0-7.72-3.6c-5.88,0-9.7,3.75-10.19,9.88a15.13,15.13,0,0,0-3-4.45l-2.66-2.66s0,0,0,0A7.9,7.9,0,0,0,119,30.88a9.1,9.1,0,0,0-3.18.55,9.21,9.21,0,0,1-2.37.22H101.93a14.29,14.29,0,0,1-3-.29l-.46-.11a8.62,8.62,0,0,0-2.26-.37c-4.48,0-7.89,4.56-9.53,9.39L84.38,38a21.16,21.16,0,0,1,1.42,1.57c-5.09-6.23-13.43-9.13-21.73-9.13-2.07,0-4.16.1-6.16.19-.95,0-1.88.1-2.82.13l-.35,0c-2.89.21-5.61.4-8.28.4a44.07,44.07,0,0,1-5-.4h-.28c-.61,0-1.22-.08-1.82-.14-1.29-.09-2.62-.19-4.07-.19C21.11,30.44,20,39,20,41.63a8,8,0,0,0,2.43,6.27l-.21-.19,2.66,2.66a8.54,8.54,0,0,0,1.36,1.09A23,23,0,0,1,26.87,58l0,30.44c0,6.16-1.28,7.1-2.64,8.08A8.63,8.63,0,0,0,20,104a9.84,9.84,0,0,0,3,7.4l-.11-.09c.89.89,1.78,1.77,2.66,2.66,3.37,3.37,9.71,5.07,19,5.07,6.87,0,19.13,0,21.22-8.63a16.26,16.26,0,0,0,1.62,1.8l-.2-.17,2.67,2.67c3.28,3.28,8,5.29,15.06,5.29,8.85,0,14.4-2.94,17.09-6.83l2.43,2.44q2.76,2.76,9.76,2.77a16.92,16.92,0,0,0,7-1.24,14.26,14.26,0,0,0,6.42,1.24h.19a16.65,16.65,0,0,0,7.08-1.28,8.07,8.07,0,0,0,1.63.73,14.91,14.91,0,0,0,4.38.55h.31c5.07,0,8-.81,9.92-2.7a6.25,6.25,0,0,0,1.82-4.63,6.91,6.91,0,0,0-.27-1.93L154,110.5c6,6,15.36,8.85,24.29,8.85,7.06,0,17.31-2.56,23.88-10.55a8.87,8.87,0,0,0,1.85,2.57l-.06-.05,2.66,2.66c2.75,2.75,7.56,4.49,13.25,4.49,7.86,0,10.65-4.32,10.66-8a6.86,6.86,0,0,0-.14-1.47,12.9,12.9,0,0,0,4.1-1.27,11.36,11.36,0,0,0,3,4.91l-.21-.19,2.66,2.67a12.56,12.56,0,0,0,8.87,3.55,12.31,12.31,0,0,0,6.3-1.66,9,9,0,0,0,5.43,1.66,11.55,11.55,0,0,0,6.58-2.21c1.68,1.2,4.28,2,8.31,2h.38c4,0,6.68-.68,8.52-1.67a8.65,8.65,0,0,0,2.23,1,16.27,16.27,0,0,0,5,.62H292c5.81,0,9.19-.88,11.27-3a6.59,6.59,0,0,0,1.91-4.9A6.93,6.93,0,0,0,303.1,105.57Z"/><polygon class="cls-3" points="66.13 75.39 38.8 75.39 38.8 41.17 77.02 41.17 77.02 64.5 66.13 75.39"/><path class="cls-4" d="M113.41,36.25a13.64,13.64,0,0,0,3.65-.39,4.84,4.84,0,0,1,1.91-.38c1.82,0,5.61,4.23,5.61,10.16,0,2.75-1.22,4.56-3.6,4.56-4.06,0-4-6.48-6.4-6.48-1.82,0-1.63,3-1.63,3.41V64c0,6.54,4.29,3.41,4.29,7.25,0,1.71-.88,4.13-9.62,4.13-2.38,0-11.11.1-11.11-4.13,0-2.91,2.89-1.75,3.83-3.84a26,26,0,0,0,.7-5.83l.37-12.14c.19-5.76-.79-5.71-1.45-5.71-2.1,0-3.12,6.48-6.91,6.48-1.82,0-2.89-2-2.89-4,0-4.67,3.36-10.77,6-10.77a10.36,10.36,0,0,1,1.73.38,20,20,0,0,0,4,.39Z"/><path class="cls-4" d="M131.26,54.93c1.45-3.79,3.37-8.63,3.37-13,0-3.79,1.49-6.65,5.65-6.65s6.63,4.89,8.45,8.52c.79,1.59,7.85,18.4,9.53,22.91,1.54,4.17,4.06,1.65,4.06,4.78,0,4-6.63,3.85-9,3.85-6.67,0-10.69-.06-10.69-3.47,0-2.63,2.85-1.64,2.85-3.57,0-2.47-1.17-2.69-8.69-2.69-2.43,0-3.87.11-3.87,2.8,0,2.14,3,.72,3,3.57,0,3.3-5,3.36-6.91,3.36-6.68,0-7.28-1.49-7.28-3.25,0-2.58,2.52-1.81,3.87-3.79a33.59,33.59,0,0,0,2.71-5.88Zm9.81,4c.47,0,1.87.11,1.87-.71s-1.36-3.68-1.73-4.45S140,50.81,139,50.81s-1.91,3.29-2.1,3.9a21,21,0,0,0-1,3.4c0,.94,1.17.77,1.68.77Z"/><path class="cls-4" d="M115.93,102.2c0,5.41,2.3,3.44,2.3,5.86,0,3.12-4.94,3.12-6.7,3.12-6.69,0-7-1.79-7-2.89,0-1.65,1.59-1.74,2.06-3.16.51-1.6.58-8.24.16-9.93s-2.34-1.1-2.34-3.16c0-3.25,9.89-4.63,10.28-4.63,1.16,0,1.2,1.06,1.2,2ZM108.23,86c-1.64,0-3.39-.87-3.39-3.12,0-3,5.14-4.26,7.12-4.26,1.56,0,3.78.6,3.78,2.89C115.74,85,110.44,86,108.23,86Z"/><path class="cls-4" d="M130.26,103c0,4.44,1.33,3.66,1.33,5.4,0,2.84-5.18,2.75-6.78,2.75s-5.52,0-5.52-2.75c0-2.2,1.79-.23,1.9-4.72l.16-6.86c.08-3.39-2.3-2.29-2.3-4.72s9-4.72,9.73-4.72a1.62,1.62,0,0,1,1.41,1.79c0,.27,0,.55,0,.82,0,.55.19,1.19.77,1.19s1-1,1.76-1.92a5,5,0,0,1,4.16-1.88c8.06,0,6.7,9.3,7.08,16.26.2,3.62,1.8,2.79,1.8,4.76,0,.83.15,2.75-7.17,2.75-1.4,0-5.13.09-5.13-2.47,0-1.65,1.28-.87,1.48-3.85.19-3.25,1.28-10.58-2.38-10.58-2.49,0-2.26,3.16-2.26,5.22Z"/><path class="cls-4" d="M201.35,87.38c-.55,22.66-20.52,24.79-25.61,24.79-10.53,0-26.24-5.13-26.24-20.41,0-6.94,4.08-12.82,10.17-12.82A10.33,10.33,0,0,1,170.2,89.52c0,1.81-.64,3.63-.64,5,0,2.67,1.82,4.17,4,4,10.72-1.29,5.63-23.09,6.36-42.32.45-11.86-8.18-5.56-8.18-12.72,0-2,.73-8.87,18.44-8.87,17.16,0,19.16,4.92,19.16,7.91,0,5.56-7.08,3-7.26,12Z"/><path class="cls-4" d="M233.78,55.58c0,9.67,2.8,4.4,2.8,7.37,0,3.13-3.64,6.54-7.05,6.54-3.69,0-3.78-2.81-4.95-2.81-.56,0-1.17.72-2.2,1.38a7.59,7.59,0,0,1-4.57,1.43c-3.88,0-7.75-2.42-7.75-7.86,0-3.9,3.17-8.74,11.39-8.74,1.45,0,2.1.11,2.1-1.86s-.05-5.61-2.19-5.61c-2.81,0-3.09,5.94-7.24,5.94a2.76,2.76,0,0,1-2.62-3c0-4.66,7.9-7.69,12.33-7.69,2.66,0,9.95,1.21,9.95,9.45Zm-14,4.84c0,1.43.65,3,2,3,1.77,0,1.91-2.26,1.91-3.9,0-1.21.05-2.59-1.26-2.59C220.84,56.9,219.77,58.66,219.77,60.42Z"/><path class="cls-4" d="M209.54,90.24c0-5.77-.28-7-.51-7.31-.61-.71-3.13,0-3.13-3.13,0-3.74,9.62-6.59,13.07-6.59,1.13,0,1.31.43,1.31,1.64,0,.39.05,1.16.52,1.16.65,0,3.27-3,7.09-3,6.12,0,9.39,7.2,9.39,13.63,0,7.36-4.43,15.22-11.25,15.22-2.2,0-4.39-1.38-4.81-1.38-.66,0-.75,1.16-.75,1.76,0,4.18,2.89,2.86,2.89,5.55,0,3.08-4.25,3.46-6.07,3.46-6.25,0-11.16-2.69-11.16-5.49,0-2.48,1.92-1.54,2.76-3.68.47-1.16.65-2.75.65-8.85Zm12.8-9.07c-1.68,0-2.24.83-2.24,10.83,0,1.81.74,2.47,2.38,2.47,2.89,0,3.27-3.68,3.27-6.32S225.28,81.17,222.34,81.17Z"/><path class="cls-4" d="M262.24,97.54c0,9.68,2.81,4.4,2.81,7.37,0,3.13-3.65,6.54-7.06,6.54-3.68,0-3.78-2.81-5-2.81-.56,0-1.16.72-2.19,1.38a7.65,7.65,0,0,1-4.58,1.43c-3.87,0-7.75-2.42-7.75-7.86,0-3.9,3.18-8.74,11.4-8.74,1.44,0,2.1.11,2.1-1.86,0-1.82-.05-5.61-2.2-5.61-2.8,0-3.08,5.93-7.24,5.93a2.75,2.75,0,0,1-2.61-3c0-4.67,7.89-7.69,12.33-7.69,2.66,0,9.94,1.21,9.94,9.45Zm-14,4.84c0,1.43.66,3,2,3,1.78,0,1.92-2.25,1.92-3.9,0-1.21,0-2.59-1.26-2.59C249.31,98.86,248.23,100.62,248.23,102.38Z"/><path class="cls-4" d="M279.42,101.5c0,5.33,1.58,4.4,1.58,6.49,0,3.4-6.21,3.29-8.12,3.29s-6.63,0-6.63-3.29c0-2.64,2.14-.28,2.28-5.66l.19-8.25c.09-4.06-2.75-2.74-2.75-5.66s10.74-5.65,11.67-5.65a1.93,1.93,0,0,1,1.68,2.14c0,.33,0,.66,0,1,0,.66.23,1.43.93,1.43s1.17-1.16,2.1-2.31a6.06,6.06,0,0,1,5-2.25c9.66,0,8,11.15,8.5,19.5.23,4.34,2.15,3.35,2.15,5.72,0,1,.18,3.29-8.6,3.29-1.68,0-6.16.11-6.16-3,0-2,1.54-1,1.77-4.61.24-3.9,1.54-12.69-2.85-12.69-3,0-2.7,3.79-2.7,6.26Z"/><path class="cls-4" d="M51.52,64c.36,1.6,1.91,6.68,7.29,6.68a11,11,0,0,0,1.57-.12c5.1-.79,8-6.72,8.48-10a14.34,14.34,0,0,0-4-.45C59.27,60.09,52.94,62,51.52,64Z"/><path class="cls-4" d="M89.75,94c-1.27-11.55-4.08-16.46-10.44-19.24-1.09-.53-2.27-1-2.27-2.56,0-1.29.63-1.61,1.45-2.14,5.09-2.89,7.72-9.08,7.72-15.5C86.21,40.36,74.31,35,64.05,35c-2.9,0-5.9.21-8.81.32s-5.9.43-8.81.43a47.13,47.13,0,0,1-5.54-.43C39,35.23,37.17,35,35.26,35c-3.63,0-10.71.75-10.71,6.63,0,6.62,6.9-.22,6.9,16.34V88.45c0,13.89-6.81,10-6.81,15.6,0,7.8,12.89,7.8,17.25,7.8,14.72,0,17-2.88,17-6.73,0-5.13-4.64-3.63-5.36-8.55a77.27,77.27,0,0,1-.64-10.36c0-6.74.73-7.06,2.73-7.06,5,0,6.54,4.81,7.53,9.73C66,103,67.78,112.81,82.31,112.81c10.26,0,14.44-4.27,14.44-8.33C96.75,98,90.84,104,89.75,94ZM45.53,55.25a2.22,2.22,0,0,1-.57.07,2.28,2.28,0,0,1-2.21-1.72A24.76,24.76,0,0,1,41.91,48a2.29,2.29,0,1,1,4.58.13,21.22,21.22,0,0,0,.69,4.32A2.29,2.29,0,0,1,45.53,55.25ZM60.84,73.53a13.13,13.13,0,0,1-2,.17c-7.13,0-9.92-6.39-10.4-9.77a1.51,1.51,0,0,1,.11-.81C50.28,58.92,59.16,57,64.91,57c2,0,4.69.22,6.37,1.27A1.52,1.52,0,0,1,72,59.59C72,63.86,68.17,72.4,60.84,73.53ZM75.43,50A1.54,1.54,0,0,1,74,51.13a1.25,1.25,0,0,1-.43-.07,43.56,43.56,0,0,1-7.05-2.7,1.53,1.53,0,0,1-.78-1.23,1.52,1.52,0,0,1,.6-1.32,47.62,47.62,0,0,1,6.26-3.33,1.53,1.53,0,0,1,2,.77,1.51,1.51,0,0,1-.76,2c-.67.31-2,.94-3.26,1.58,1.9.73,3.8,1.28,3.82,1.29A1.53,1.53,0,0,1,75.43,50Z"/><path class="cls-4" d="M280.75,46.21a3,3,0,1,0,4.09-4.3l-5.24-5.24a3,3,0,1,0-4.3,4.1l-2.38,2.39A19.41,19.41,0,1,0,281,63.92l.25,0c1.63.15,3-.34,3.08-1.08l.28-3.19c.06-.73-1.22-1.46-2.85-1.6l-.25,0a19.22,19.22,0,0,0-3.17-9.45ZM262.2,71.84a12.53,12.53,0,1,1,12.52-12.52A12.54,12.54,0,0,1,262.2,71.84Z"/><path class="cls-4" d="M263.34,58.31a1.51,1.51,0,0,0-1.14-.53h0L257.71,50a.76.76,0,0,0-1-.28.76.76,0,0,0-.28,1l4.5,7.78a1.5,1.5,0,0,0-.23.75,1.53,1.53,0,0,0,1.54,1.53,1.48,1.48,0,0,0,1.13-.52L270,61.81l3.12-2.49L270,56.83Z"/><path class="cls-5" d="M42.17,70.12a17.58,17.58,0,0,1-2.47-1.37c1.45-.81,2.51-1.35,2.54-1.36a1.53,1.53,0,1,0-1.39-2.72c-.07,0-.89.45-2.06,1.09.08-.55.17-1.07.25-1.5a1.53,1.53,0,0,0-3-.56c0,.2-.15.85-.28,1.73-.39-.43-.63-.72-.63-.73a1.53,1.53,0,1,0-2.43,1.85,17.42,17.42,0,0,0,1.67,1.83c-.61.39-1.22.79-1.79,1.2a1.53,1.53,0,0,0,1.77,2.49c.31-.23.64-.45,1-.67a8.94,8.94,0,0,0,.22,1.85A1.52,1.52,0,0,0,37,74.41a1.55,1.55,0,0,0,.37,0,1.53,1.53,0,0,0,1.12-1.85,5.84,5.84,0,0,1-.13-1,20.44,20.44,0,0,0,2.55,1.37,1.5,1.5,0,0,0,.62.13,1.53,1.53,0,0,0,.63-2.92Z"/></g></g></svg>