<?xml version="1.0" encoding="UTF-8"?><svg id="_内容" xmlns="http://www.w3.org/2000/svg" width="200" height="30" viewBox="0 0 200 30"><defs><style>.cls-1{fill:#fff;}</style></defs><rect class="cls-1" y="26" width="200" height="4"/><path class="cls-1" d="M5.46,13.58v7.14H0V.42c2.43-.28,4.85-.42,7.28-.42,5.6,0,8.4,2.1,8.4,6.3,0,1.18-.36,2.27-1.09,3.28-.73,1.01-1.67,1.73-2.83,2.16v.06c.56.32,1.03.72,1.4,1.22.37.5.73,1.2,1.06,2.11l2.02,5.6h-5.74l-1.74-5.32c-.21-.65-.47-1.12-.78-1.4-.32-.28-.74-.42-1.26-.42h-1.26ZM5.46,9.52h1.54c.95,0,1.7-.24,2.25-.71s.83-1.12.83-1.95c0-1.77-1.03-2.66-3.08-2.66-.6,0-1.11.05-1.54.14v5.18Z"/><path class="cls-1" d="M27.42,18.76c-.52.69-1.17,1.24-1.95,1.64s-1.56.6-2.37.6c-1.75,0-3.01-.46-3.77-1.37s-1.13-2.51-1.13-4.79V6.16h5.26v8.12c0,1.08.1,1.8.31,2.14.21.35.59.52,1.15.52s1.1-.32,1.55-.95c.46-.63.69-1.39.69-2.27v-7.56h5.32v14.56h-4.9l-.11-1.96h-.06Z"/><path class="cls-1" d="M40.65,8.12c.52-.69,1.17-1.24,1.95-1.64.77-.4,1.56-.6,2.37-.6,1.85,0,3.17.52,3.98,1.55s1.2,2.85,1.2,5.45v7.84h-5.26v-7.28c0-1.4-.13-2.33-.38-2.8-.25-.47-.7-.7-1.36-.7-.58,0-1.1.32-1.55.95-.46.63-.69,1.39-.69,2.27v7.56h-5.32V6.16h4.9l.11,1.96h.06Z"/><path class="cls-1" d="M58.22,8.12c.52-.69,1.17-1.24,1.95-1.64.77-.4,1.56-.6,2.37-.6,1.85,0,3.17.52,3.98,1.55s1.2,2.85,1.2,5.45v7.84h-5.26v-7.28c0-1.4-.13-2.33-.38-2.8-.25-.47-.7-.7-1.36-.7-.58,0-1.1.32-1.55.95-.46.63-.69,1.39-.69,2.27v7.56h-5.32V6.16h4.9l.11,1.96h.06Z"/><path class="cls-1" d="M75.06,15.12c.32,1.49,1.38,2.24,3.19,2.24,1.4,0,2.73-.33,4-.98l1.12,3.5c-1.72.75-3.58,1.12-5.6,1.12-2.41,0-4.34-.68-5.8-2.04s-2.18-3.2-2.18-5.52.67-4.18,2-5.53c1.33-1.35,3.14-2.03,5.42-2.03s4.15.66,5.46,1.97c1.31,1.32,1.96,3.18,1.96,5.59,0,.5-.05,1.06-.14,1.68h-9.44ZM75,12.04h4.73c0-1.77-.79-2.66-2.38-2.66-1.44,0-2.22.89-2.35,2.66Z"/><path class="cls-1" d="M98.71,5.88v4.2c-2.09,0-3.67.39-4.73,1.18s-1.6,1.89-1.6,3.3v6.16h-5.43V6.16h5.01l.03,2.8h.06c1.6-2.05,3.83-3.08,6.66-3.08Z"/></svg>