<?xml version="1.0" encoding="UTF-8"?><svg id="_内容" xmlns="http://www.w3.org/2000/svg" width="200" height="30" viewBox="0 0 200 30"><defs><style>.cls-1{fill:#fff;}</style></defs><rect class="cls-1" y="26" width="200" height="4"/><path class="cls-1" d="M11.7,21c-3.3,0-5.95-.94-7.94-2.81-1.99-1.88-2.98-4.44-2.98-7.69s.96-5.86,2.87-7.71C5.57.93,8.25,0,11.7,0c2.63,0,4.87.65,6.72,1.96l-1.54,4.06c-1.55-1.03-3.09-1.54-4.62-1.54-1.81,0-3.22.52-4.23,1.55-1.01,1.04-1.51,2.52-1.51,4.47s.53,3.34,1.58,4.41c1.05,1.07,2.44,1.61,4.16,1.61,1.53,0,3.07-.51,4.62-1.54l1.54,4.06c-1.85,1.31-4.09,1.96-6.72,1.96Z"/><path class="cls-1" d="M21.61,7.9c1.34-1.34,3.24-2.02,5.68-2.02s4.34.67,5.68,2.02,2.02,3.19,2.02,5.54-.67,4.2-2.02,5.54c-1.34,1.34-3.24,2.02-5.68,2.02s-4.34-.67-5.68-2.02c-1.34-1.34-2.02-3.19-2.02-5.54s.67-4.2,2.02-5.54ZM25.42,16.32c.41.58,1.04.87,1.88.87s1.46-.29,1.88-.87c.41-.58.62-1.54.62-2.88s-.21-2.3-.62-2.88c-.41-.58-1.04-.87-1.88-.87s-1.47.29-1.88.87c-.41.58-.62,1.54-.62,2.88s.21,2.31.62,2.88Z"/><path class="cls-1" d="M53.71,20.72v-8.12c0-1.12-.1-1.86-.31-2.21s-.58-.53-1.12-.53c-.49,0-.89.24-1.2.71-.32.48-.48,1.15-.48,2.03v8.12h-5.1v-8.12c0-1.12-.1-1.86-.29-2.21-.2-.35-.57-.53-1.11-.53-.49,0-.89.24-1.2.71-.32.48-.48,1.15-.48,2.03v8.12h-5.18V6.16h4.76l.11,1.96h.06c.52-.69,1.13-1.24,1.82-1.64.69-.4,1.38-.6,2.07-.6.9,0,1.61.15,2.14.46.53.31,1.02.85,1.47,1.64h.06c.8-.78,1.54-1.33,2.21-1.64s1.44-.46,2.3-.46c1.61,0,2.77.44,3.49,1.32.72.88,1.08,2.4,1.08,4.56v8.96h-5.1Z"/><path class="cls-1" d="M78.29,20.72v-8.12c0-1.12-.1-1.86-.31-2.21s-.58-.53-1.12-.53c-.49,0-.89.24-1.2.71-.32.48-.48,1.15-.48,2.03v8.12h-5.1v-8.12c0-1.12-.1-1.86-.29-2.21-.2-.35-.57-.53-1.11-.53-.49,0-.89.24-1.2.71-.32.48-.48,1.15-.48,2.03v8.12h-5.18V6.16h4.76l.11,1.96h.06c.52-.69,1.13-1.24,1.82-1.64.69-.4,1.38-.6,2.07-.6.9,0,1.61.15,2.14.46.53.31,1.02.85,1.47,1.64h.06c.8-.78,1.54-1.33,2.21-1.64s1.44-.46,2.3-.46c1.61,0,2.77.44,3.49,1.32.72.88,1.08,2.4,1.08,4.56v8.96h-5.1Z"/><path class="cls-1" d="M90.8,15.12c.32,1.49,1.38,2.24,3.19,2.24,1.4,0,2.73-.33,4-.98l1.12,3.5c-1.72.75-3.58,1.12-5.6,1.12-2.41,0-4.34-.68-5.8-2.04s-2.18-3.2-2.18-5.52.67-4.18,2-5.53c1.33-1.35,3.14-2.03,5.42-2.03s4.15.66,5.46,1.97c1.31,1.32,1.96,3.18,1.96,5.59,0,.5-.05,1.06-.14,1.68h-9.44ZM90.74,12.04h4.73c0-1.77-.79-2.66-2.38-2.66-1.44,0-2.22.89-2.35,2.66Z"/><path class="cls-1" d="M107.76,8.12c.52-.69,1.17-1.24,1.95-1.64.77-.4,1.56-.6,2.37-.6,1.85,0,3.17.52,3.98,1.55s1.2,2.85,1.2,5.45v7.84h-5.26v-7.28c0-1.4-.13-2.33-.38-2.8-.25-.47-.7-.7-1.36-.7-.58,0-1.1.32-1.55.95-.46.63-.69,1.39-.69,2.27v7.56h-5.32V6.16h4.9l.11,1.96h.06Z"/><path class="cls-1" d="M127.6,21c-1.85,0-3.22-.42-4.12-1.27-.9-.85-1.34-2.2-1.34-4.05v-5.32h-2.94v-3.64h2.94V1.4h5.43v5.32h4.51v3.64h-4.51v4.48c0,.9.1,1.49.31,1.79.21.3.58.45,1.12.45.82,0,1.66-.14,2.52-.42l.56,3.78c-1.38.37-2.88.56-4.48.56Z"/><path class="cls-1" d="M142.06,11.2h.84c0-.63-.12-1.07-.36-1.32s-.68-.36-1.32-.36c-1.96,0-3.87.42-5.74,1.26l-.7-3.64c2.05-.84,4.29-1.26,6.72-1.26s4.15.45,5.18,1.36c1.03.91,1.54,2.41,1.54,4.52v5.04c0,1.34.14,2.65.42,3.92h-5.04c-.11-.63-.21-1.29-.28-1.96h-.06c-.5.67-1.16,1.21-1.96,1.62s-1.62.62-2.46.62c-1.44,0-2.59-.4-3.46-1.19-.87-.79-1.3-1.89-1.3-3.29,0-1.61.69-2.89,2.06-3.86,1.37-.97,3.35-1.46,5.92-1.46ZM138.84,15.96c0,.84.47,1.26,1.4,1.26.8,0,1.45-.22,1.93-.67.49-.45.73-1.06.73-1.85v-.42h-.84c-1.06,0-1.87.15-2.41.46-.54.31-.81.71-.81,1.22Z"/><path class="cls-1" d="M163.12,5.88v4.2c-2.09,0-3.67.39-4.73,1.18s-1.6,1.89-1.6,3.3v6.16h-5.43V6.16h5.01l.03,2.8h.06c1.6-2.05,3.83-3.08,6.66-3.08Z"/><path class="cls-1" d="M172.65,15.96h.06l2.63-9.8h5.6l-7.56,20.72h-5.6l2.52-6.16-5.6-14.56h5.88l2.07,9.8Z"/></svg>