<?xml version="1.0" encoding="UTF-8"?><svg id="_åƒ" xmlns="http://www.w3.org/2000/svg" width="60" height="60" viewBox="0 0 60 60"><defs><style>.cls-1{fill:#fff;}.cls-2{opacity:.8;}</style></defs><g class="cls-2"><rect class="cls-1" x="-6.14" y="27.47" width="72.29" height="3.61" transform="translate(-11.57 23.86) rotate(-36.87)"/><g><path class="cls-1" d="M55.45,18.86l-3.25-.96-11.67,8.76c.21,.84,.32,1.71,.32,2.62,0,5.99-4.85,10.84-10.84,10.84-1.99,0-3.85-.54-5.46-1.48l-4.86,3.65h4.1l-3.28,8.21c-.74,1.85,.28,3.36,2.27,3.36h14.46c1.99,0,3.01-1.51,2.27-3.36l-3.28-8.21h4.63c1.99,0,5.19-.39,7.12-.88l7.44-1.86c1.93-.48,3.51-2.5,3.51-4.49v-11.57c0-1.99-1.56-4.07-3.47-4.63Z"/><path class="cls-1" d="M19.16,29.28c0-5.99,4.85-10.84,10.84-10.84,1.99,0,3.85,.54,5.46,1.48l4.86-3.65H19.88c-1.99,0-5.2,.38-7.13,.84l-8.15,1.94c-1.93,.46-3.52,2.46-3.52,4.45v11.57c0,1.99,1.58,4.01,3.51,4.49l3.51,.88,11.38-8.53c-.21-.84-.32-1.71-.32-2.62Z"/><path class="cls-1" d="M37.23,29.28s0-.1,0-.14l-9.39,7.04c.68,.22,1.41,.33,2.17,.33,3.99,0,7.23-3.24,7.23-7.23Z"/><path class="cls-1" d="M22.77,29.28s0,.1,0,.14l9.39-7.04c-.68-.22-1.41-.33-2.17-.33-3.99,0-7.23,3.24-7.23,7.23Z"/></g></g></svg>