<?xml version="1.0" encoding="UTF-8"?><svg id="_åƒ" xmlns="http://www.w3.org/2000/svg" width="24" height="24" viewBox="0 0 24 24"><defs><style>.cls-1{fill:#fff;}</style></defs><path class="cls-1" d="M24,4.56c-.88,.39-1.83,.66-2.83,.77,1.02-.61,1.8-1.57,2.16-2.72-.95,.56-2.01,.97-3.13,1.19-.9-.96-2.18-1.56-3.59-1.56-2.72,0-4.92,2.21-4.92,4.92,0,.39,.04,.76,.13,1.12-4.09-.2-7.72-2.17-10.15-5.14-.42,.73-.67,1.57-.67,2.48,0,1.71,.87,3.22,2.19,4.1-.81-.03-1.57-.25-2.23-.62,0,.02,0,.04,0,.06,0,2.39,1.7,4.38,3.95,4.83-.41,.11-.85,.17-1.3,.17-.32,0-.63-.03-.93-.09,.63,1.96,2.44,3.38,4.6,3.42-1.69,1.32-3.81,2.11-6.11,2.11-.4,0-.79-.02-1.17-.07,2.18,1.4,4.77,2.21,7.55,2.21,9.06,0,14.01-7.5,14.01-14.01,0-.21,0-.43-.01-.64,.96-.69,1.8-1.56,2.46-2.55Z"/></svg>