<?xml version="1.0" encoding="UTF-8"?><svg id="_åƒ" xmlns="http://www.w3.org/2000/svg" width="32" height="32" viewBox="0 0 32 32"><defs><style>.cls-1{fill:#ffff52;}</style></defs><path class="cls-1" d="M23.49,5.67L1.35,18.45c-1.29,.74-1.73,2.41-.99,3.7l4.46,7.72c.74,1.29,2.41,1.73,3.7,.99l22.14-12.78c1.29-.74,1.73-2.41,.99-3.69l-4.46-7.72c-.74-1.29-2.41-1.73-3.69-.99Zm-9.16,15.21c.19,.32,.07,.74-.25,.92l-1.54,.89c-.32,.19-.43,.6-.25,.92l.89,1.55c.19,.32,.08,.74-.25,.92l-2.45,1.41c-.32,.18-.74,.07-.92-.25l-.89-1.54c-.19-.32-.6-.43-.92-.25l-1.55,.89c-.32,.19-.74,.08-.92-.25l-1.41-2.45c-.19-.32-.07-.74,.25-.92l1.55-.89c.32-.19,.43-.6,.25-.92l-.89-1.55c-.19-.32-.07-.74,.25-.92l2.45-1.41c.32-.19,.74-.08,.92,.25l.89,1.55c.19,.32,.6,.43,.92,.25l1.54-.89c.32-.19,.74-.08,.92,.25l1.41,2.45Zm7.96-.8c-1.11,.64-2.53,.26-3.17-.85-.64-1.11-.26-2.53,.85-3.17,1.11-.64,2.53-.26,3.17,.85,.64,1.11,.26,2.53-.85,3.16Zm4.86-3.24c-1.11,.64-2.53,.26-3.17-.85-.64-1.11-.26-2.53,.85-3.17,1.11-.64,2.52-.26,3.17,.85,.64,1.11,.26,2.53-.85,3.17Z"/><path class="cls-1" d="M14.76,13.3c-.06,.03-.12,.06-.18,.08-.59,.22-1.24-.09-1.45-.68-.51-1.4-1.98-2.63-4.58-1.87-2.34,.68-4.41,.46-5.85-.63-1.19-.89-1.84-2.28-1.83-3.91,0-.95,.34-4.13,4.47-5.29,2.65-.74,4.53,.49,6.36,1.68l.63,.41c1.05,.67,2.03,.87,2.68,.57,.55-.27,.9-.91,1.01-1.84,.07-.62,.64-1.07,1.26-.99,.62,.07,1.07,.64,.99,1.26-.2,1.73-1.01,3.02-2.29,3.62-1.39,.66-3.12,.41-4.87-.7l-.65-.42c-1.82-1.18-2.93-1.83-4.51-1.39-2.44,.68-2.81,2.24-2.81,3.11,0,.63,.16,1.51,.93,2.09,.85,.64,2.22,.73,3.85,.26,3.84-1.12,6.46,.84,7.35,3.27,.19,.53-.03,1.1-.5,1.37Z"/></svg>