<?xml version="1.0" encoding="UTF-8"?><svg id="_内容" xmlns="http://www.w3.org/2000/svg" width="458" height="155" viewBox="0 0 458 155"><defs><style>.cls-1{fill:none;stroke:#321e14;stroke-width:9px;}.cls-2{fill:#321e14;}.cls-3{fill:#fff;}.cls-4{fill:#eb9bc1;}</style></defs><rect class="cls-2" x="138" y="114" width="305" height="26" rx="10" ry="10"/><path class="cls-1" d="M175.13,91.71c-.19-.5-.5-1.89-1.11-1.89-.73,0-.99,1.17-1.99,4.05l-2.33,6.79c-.8,2.34-1.19,4-3.67,4-2.14,0-2.72-1.58-3.4-3.65l-7.12-21.37c-1.07-3.24-2.6-1.58-2.6-4.32,0-3.1,5.16-3.19,6.92-3.19,5.58,0,6.54,1.03,6.54,2.88,0,1.35-.88,1.53-.88,2.92,0,1.3,1.19,4.59,1.34,5.13.19.72,1.03,3.87,1.91,3.87.99,0,1.8-3.24,1.99-3.91.11-.27.5-1.44.5-1.76,0-.4-.8-3.19-1.95-3.96-.77-.45-1.42-1.08-1.42-2.21,0-.27-.54-2.97,7.46-2.97,7.42,0,7.27,2.02,7.27,2.79,0,1.49-1.72,1.89-1.72,3.02,0,1.21,1.3,4,1.68,4.99.27.72,1.11,3.51,2.03,3.51,1.3,0,2.95-7.65,2.95-8.28,0-1.94-2.49-.95-2.49-3.42,0-2.75,3.9-2.61,5.47-2.61s4.44.23,4.44,2.74c0,2.21-1.61,1.62-2.64,4.77l-6.58,20.25c-.8,2.43-1.68,4.77-3.86,4.77-1.91,0-2.52-1.22-3.21-3.1l-3.52-9.85Z"/><path class="cls-1" d="M206.71,95.85c0,5.31,2.26,3.38,2.26,5.76,0,3.06-4.86,3.06-6.58,3.06-6.58,0-6.85-1.75-6.85-2.83,0-1.62,1.57-1.71,2.03-3.1.5-1.57.57-8.1.15-9.76-.34-1.57-2.3-1.08-2.3-3.1,0-3.19,9.72-4.54,10.1-4.54,1.15,0,1.19,1.03,1.19,1.98v12.55ZM199.14,79.87c-1.61,0-3.33-.85-3.33-3.06,0-2.97,5.05-4.19,7-4.19,1.53,0,3.71.59,3.71,2.83,0,3.51-5.2,4.41-7.38,4.41Z"/><path class="cls-1" d="M220.69,96.66c0,4.36,1.3,3.6,1.3,5.31,0,2.79-5.09,2.7-6.66,2.7s-5.43,0-5.43-2.7c0-2.16,1.76-.22,1.87-4.63l.15-6.75c.08-3.33-2.26-2.25-2.26-4.63s8.8-4.63,9.56-4.63c.84,0,1.38.85,1.38,1.75,0,.27-.04.54-.04.81,0,.54.19,1.17.77,1.17.61,0,.96-.95,1.72-1.89.77-.9,1.91-1.84,4.09-1.84,7.92,0,6.58,9.13,6.96,15.97.19,3.55,1.76,2.75,1.76,4.68,0,.81.15,2.7-7.04,2.7-1.38,0-5.05.09-5.05-2.43,0-1.62,1.26-.85,1.45-3.78.19-3.19,1.26-10.39-2.33-10.39-2.45,0-2.22,3.1-2.22,5.13v3.46Z"/><path class="cls-1" d="M247.85,94.45c0,3.02,1.07,3.73,2.1,3.73,1.19,0,1.87-1.03,2.56-1.03.77,0,1.3,1.26,1.3,2.07,0,2.97-4.36,5.58-8.22,5.58-1.95,0-6.85-.99-6.85-8.14v-9.27c0-.81,0-1.12-.19-1.26-.19-.13-.61-.04-1.49-.04-.99,0-1.49.04-1.68-.18-.27-.32-.19-.77-.19-1.8,0-.63-.11-1.12.34-1.48l8.72-6.52c.88-.63.84-.5,1.99-.5,1.53,0,1.61-.18,1.61,1.89,0,1.4-.08,2.79.11,3.33.11.36.38.36,1.38.36h2.68c1.65,0,1.65.14,1.65,2.16,0,2.56-.27,2.74-1.76,2.74h-2.64c-1.34,0-1.42.04-1.42,1.67v6.7Z"/><path class="cls-1" d="M263.72,93.82c-.42,0-1.03-.13-1.03.63,0,2.25,2.49,4.14,4.28,4.14,2.87,0,4.28-2.02,5.09-2.02s1.49,1.39,1.49,2.25c0,3.46-5.39,5.98-8.84,5.98-6.89,0-10.44-5.85-10.44-11.65,0-6.93,5.01-11.97,10.75-11.97,6.5,0,9.37,5.9,9.37,9.27,0,2.97-1.15,3.38-2.37,3.38h-8.3ZM267.05,88.15c0-1.62-.84-2.88-2.26-2.88-1.26,0-2.29,1.53-2.29,2.97,0,1.62,1.3,1.26,2.29,1.26s2.26.27,2.26-1.35Z"/><path class="cls-1" d="M277.78,90.54c0-4.41-2.37-1.94-2.37-4.68,0-3.55,8.95-4.54,9.3-4.54,1.45,0,1.49.45,1.65,1.98.04.54,0,1.58.65,1.58.92,0,1.49-3.55,4.78-3.55,2.56,0,4.25,2.25,4.25,5.22s-2.18,5.4-4.71,5.4-3.18-2.56-4.17-2.56c-1.07,0-.88,3.01-.88,3.82,0,1.35.11,3.24.31,4.95.23,1.98,3.14.77,3.14,3.46,0,2.83-3.37,3.06-7.57,3.06-1.76,0-6.96.09-6.96-3.02,0-1.89,1.76-1.89,2.18-3.46.31-1.12.42-3.69.42-4.95v-2.7Z"/><path class="cls-1" d="M333.8,96.97c0,6.16-3.56,9.84-5.54,9.84-2.72,0-.35-2.64-4.85-2.64h-16.33c-.89,0-2.87.11-2.87-1.43,0-.88-.1-.88,3.61-4.78,2.52-2.64,8.51-9.51,8.51-13.42,0-1.92-1.04-3.13-2.77-3.13-3.02,0-3.61,3.19-5.89,3.19-1.44,0-3.22-1.54-3.22-3.19,0-4.84,9.31-9.62,15.39-9.62,8.37,0,11.83,4.29,11.83,8.63,0,7.04-8.32,11.55-8.32,13.8,0,1.26,1.19,1.92,2.18,1.92,3.51,0,4.41-3.3,6.04-3.3,1.83,0,2.23,2.53,2.23,4.12Z"/><path class="cls-1" d="M349.71,71.78c8.37,0,14.8,7.81,14.8,16.94,0,10.83-7.92,16.22-14.4,16.22-8.56,0-14.21-7.75-14.21-16.88s5.1-16.28,13.81-16.28ZM349.36,79.98c-2.08,0-2.38,2.64-2.38,4.4,0,2.47.89,12.37,4.11,12.37,1.98,0,2.33-2.86,2.33-4.51,0-2.64-.79-12.26-4.06-12.26Z"/><path class="cls-1" d="M395.27,96.97c0,6.16-3.56,9.84-5.54,9.84-2.72,0-.35-2.64-4.85-2.64h-16.33c-.89,0-2.87.11-2.87-1.43,0-.88-.1-.88,3.61-4.78,2.52-2.64,8.51-9.51,8.51-13.42,0-1.92-1.04-3.13-2.77-3.13-3.02,0-3.61,3.19-5.89,3.19-1.44,0-3.22-1.54-3.22-3.19,0-4.84,9.31-9.62,15.39-9.62,8.37,0,11.83,4.29,11.83,8.63,0,7.04-8.32,11.55-8.32,13.8,0,1.26,1.19,1.92,2.18,1.92,3.51,0,4.41-3.3,6.04-3.3,1.83,0,2.23,2.53,2.23,4.12Z"/><path class="cls-1" d="M411.06,81.21c-1.14,0-2.52-.05-2.52,1.53,0,1.24,1.48,1.19,2.52,1.29,12.82,1.44,15.39,7.08,15.39,10.49,0,6.39-7.38,11.98-18.02,11.98-7.92,0-9.5-2.23-9.5-4.01,0-.69.35-2.82,1.39-2.82.3,0,3.12.99,5.59.99,2.08,0,4.8-.84,4.8-3.37,0-3.22-4.65-4.46-7.18-4.9-1.34-.2-5-.3-5-2.43,0-2.48,2.38-9.31,3.32-11.83,2.28-6.19,2.67-5.84,5.15-5.84h16.88c1.83,0,2.33.1,2.33,2.18,0,2.28-1.09,6.73-4.75,6.73h-10.4Z"/><path class="cls-1" d="M149.6,36.74c0-7.44-3.1-4.37-3.1-7.34,0-2.64,3.18-2.98,4.81-2.98.86,0,1.67.1,2.53.14.82.1,1.67.19,2.49.19,1.31,0,2.61-.1,3.96-.19,1.31-.05,2.65-.14,3.96-.14,4.61,0,9.96,2.4,9.96,8.78,0,2.88-1.18,5.66-3.47,6.96-.37.24-.65.38-.65.96,0,.72.53.91,1.02,1.15,2.86,1.25,4.12,3.46,4.69,8.64.49,4.46,3.14,1.78,3.14,4.7,0,1.82-1.88,3.74-6.49,3.74-6.53,0-7.34-4.42-8.61-10.75-.45-2.21-1.14-4.37-3.39-4.37-.9,0-1.22.14-1.22,3.17,0,1.39.08,3.31.29,4.66.33,2.21,2.41,1.54,2.41,3.84,0,1.73-1.02,3.02-7.63,3.02-1.96,0-7.75,0-7.75-3.5,0-2.5,3.06-.77,3.06-7.01v-13.68ZM159.07,38.85c-.08,1.25-.29,2.3,1.06,2.3,2.65,0,3.51-1.73,3.51-4.7,0-2.35-.49-4.75-2.86-4.75-1.51,0-1.47,1.1-1.55,2.59l-.16,4.56Z"/><path class="cls-1" d="M197.64,26.76c1.75,0,2.57-.19,3.18-.34.57-.19.9-.34,1.67-.34,1.59,0,4.9,3.7,4.9,8.88,0,2.4-1.06,3.98-3.14,3.98-3.55,0-3.51-5.66-5.59-5.66-1.59,0-1.43,2.59-1.43,2.98v14.74c0,5.71,3.75,2.98,3.75,6.34,0,1.49-.77,3.6-8.41,3.6-2.08,0-9.71.1-9.71-3.6,0-2.54,2.53-1.54,3.35-3.36.41-1.01.57-3.89.61-5.09l.33-10.61c.16-5.04-.69-4.99-1.27-4.99-1.84,0-2.73,5.66-6.04,5.66-1.59,0-2.53-1.73-2.53-3.46,0-4.08,2.94-9.41,5.26-9.41.29,0,.73.14,1.51.34.78.14,1.88.34,3.51.34h10.04Z"/><path class="cls-1" d="M213.08,43.08c1.26-3.31,2.94-7.54,2.94-11.33,0-3.31,1.31-5.81,4.94-5.81s5.79,4.27,7.39,7.44c.69,1.39,6.85,16.08,8.32,20.02,1.35,3.65,3.55,1.44,3.55,4.18,0,3.5-5.79,3.36-7.83,3.36-5.83,0-9.34-.05-9.34-3.02,0-2.3,2.49-1.44,2.49-3.12,0-2.16-1.02-2.35-7.59-2.35-2.12,0-3.39.1-3.39,2.45,0,1.87,2.61.62,2.61,3.12,0,2.88-4.41,2.93-6.04,2.93-5.83,0-6.37-1.3-6.37-2.83,0-2.26,2.2-1.58,3.39-3.31.9-1.3,1.75-3.6,2.37-5.14l2.57-6.58ZM221.65,46.53c.41,0,1.63.1,1.63-.62s-1.18-3.22-1.51-3.89c-.37-.77-1.06-2.54-1.96-2.54-.98,0-1.67,2.88-1.84,3.41s-.86,2.4-.86,2.98c0,.82,1.02.67,1.47.67h3.06Z"/><path class="cls-1" d="M263.06,51.53c0,5.66,2.41,3.6,2.41,6.14,0,3.26-5.18,3.26-7.02,3.26-7.02,0-7.3-1.87-7.3-3.02,0-1.73,1.67-1.82,2.16-3.31.53-1.68.61-8.64.16-10.42-.37-1.68-2.45-1.15-2.45-3.31,0-3.41,10.36-4.85,10.77-4.85,1.22,0,1.27,1.1,1.27,2.11v13.39ZM254.98,34.48c-1.71,0-3.55-.91-3.55-3.26,0-3.17,5.39-4.46,7.47-4.46,1.63,0,3.96.62,3.96,3.02,0,3.74-5.55,4.7-7.88,4.7Z"/><path class="cls-1" d="M277.96,52.39c0,4.66,1.39,3.84,1.39,5.66,0,2.98-5.43,2.88-7.1,2.88s-5.79,0-5.79-2.88c0-2.3,1.88-.24,2-4.94l.16-7.2c.08-3.55-2.41-2.4-2.41-4.94s9.38-4.94,10.2-4.94c.9,0,1.47.91,1.47,1.87,0,.29-.04.58-.04.86,0,.58.2,1.25.82,1.25.65,0,1.02-1.01,1.84-2.02.82-.96,2.04-1.97,4.37-1.97,8.45,0,7.02,9.75,7.43,17.04.2,3.79,1.88,2.93,1.88,4.99,0,.86.16,2.88-7.51,2.88-1.47,0-5.39.1-5.39-2.59,0-1.73,1.35-.91,1.55-4.03.2-3.41,1.35-11.09-2.49-11.09-2.61,0-2.37,3.31-2.37,5.47v3.7Z"/><path class="cls-1" d="M327.98,49.94c-.24,10.18-9.22,11.14-11.51,11.14-4.73,0-11.79-2.3-11.79-9.17,0-3.12,1.84-5.76,4.57-5.76,2.37,0,4.73,1.73,4.73,4.75,0,.82-.29,1.63-.29,2.26,0,1.2.82,1.87,1.8,1.78,4.81-.58,2.53-10.37,2.86-19.01.2-5.33-3.67-2.5-3.67-5.71,0-.91.33-3.98,8.28-3.98s8.61,2.21,8.61,3.55c0,2.5-3.18,1.34-3.26,5.38l-.33,14.79Z"/><path class="cls-1" d="M351.91,48.93c0,8.45,2.45,3.84,2.45,6.43,0,2.74-3.18,5.71-6.16,5.71-3.22,0-3.3-2.45-4.32-2.45-.49,0-1.02.62-1.92,1.2-.9.62-2.12,1.25-4,1.25-3.39,0-6.77-2.11-6.77-6.86,0-3.41,2.77-7.63,9.96-7.63,1.27,0,1.84.1,1.84-1.63,0-1.58-.04-4.9-1.92-4.9-2.45,0-2.69,5.18-6.32,5.18-1.31,0-2.29-1.1-2.29-2.64,0-4.08,6.9-6.72,10.77-6.72,2.33,0,8.69,1.06,8.69,8.26v4.8ZM339.67,53.16c0,1.25.57,2.59,1.75,2.59,1.55,0,1.67-1.97,1.67-3.41,0-1.06.04-2.26-1.1-2.26-1.39,0-2.33,1.54-2.33,3.07Z"/><path class="cls-1" d="M357.62,50.9c0-5.04-.25-6.14-.45-6.38-.53-.62-2.73,0-2.73-2.74,0-3.26,8.41-5.76,11.42-5.76.98,0,1.14.38,1.14,1.44,0,.34.04,1.01.45,1.01.57,0,2.86-2.59,6.2-2.59,5.34,0,8.2,6.29,8.2,11.91,0,6.43-3.88,13.3-9.83,13.3-1.92,0-3.84-1.2-4.2-1.2-.57,0-.65,1.01-.65,1.54,0,3.65,2.53,2.5,2.53,4.85,0,2.69-3.71,3.02-5.3,3.02-5.47,0-9.75-2.35-9.75-4.8,0-2.16,1.67-1.34,2.41-3.22.41-1.01.57-2.4.57-7.73v-2.64ZM368.8,42.98c-1.47,0-1.96.72-1.96,9.46,0,1.58.65,2.16,2.08,2.16,2.53,0,2.86-3.22,2.86-5.52s-.41-6.1-2.98-6.1Z"/><path class="cls-1" d="M403.56,48.93c0,8.45,2.45,3.84,2.45,6.43,0,2.74-3.18,5.71-6.16,5.71-3.22,0-3.3-2.45-4.32-2.45-.49,0-1.02.62-1.92,1.2-.9.62-2.12,1.25-4,1.25-3.39,0-6.77-2.11-6.77-6.86,0-3.41,2.77-7.63,9.96-7.63,1.27,0,1.84.1,1.84-1.63,0-1.58-.04-4.9-1.92-4.9-2.45,0-2.69,5.18-6.32,5.18-1.31,0-2.29-1.1-2.29-2.64,0-4.08,6.9-6.72,10.77-6.72,2.33,0,8.69,1.06,8.69,8.26v4.8ZM391.32,53.16c0,1.25.57,2.59,1.75,2.59,1.55,0,1.67-1.97,1.67-3.41,0-1.06.04-2.26-1.1-2.26-1.39,0-2.33,1.54-2.33,3.07Z"/><path class="cls-1" d="M418.46,52.39c0,4.66,1.39,3.84,1.39,5.66,0,2.98-5.43,2.88-7.1,2.88s-5.79,0-5.79-2.88c0-2.3,1.88-.24,2-4.94l.16-7.2c.08-3.55-2.41-2.4-2.41-4.94s9.38-4.94,10.2-4.94c.9,0,1.47.91,1.47,1.87,0,.29-.04.58-.04.86,0,.58.2,1.25.82,1.25.65,0,1.02-1.01,1.84-2.02.82-.96,2.04-1.97,4.37-1.97,8.45,0,7.02,9.75,7.43,17.04.2,3.79,1.88,2.93,1.88,4.99,0,.86.16,2.88-7.51,2.88-1.47,0-5.39.1-5.39-2.59,0-1.73,1.35-.91,1.55-4.03.2-3.41,1.35-11.09-2.49-11.09-2.61,0-2.37,3.31-2.37,5.47v3.7Z"/><path class="cls-3" d="M175.13,91.71c-.19-.5-.5-1.89-1.11-1.89-.73,0-.99,1.17-1.99,4.05l-2.33,6.79c-.8,2.34-1.19,4-3.67,4-2.14,0-2.72-1.58-3.4-3.65l-7.12-21.37c-1.07-3.24-2.6-1.58-2.6-4.32,0-3.1,5.16-3.19,6.92-3.19,5.58,0,6.54,1.03,6.54,2.88,0,1.35-.88,1.53-.88,2.92,0,1.3,1.19,4.59,1.34,5.13.19.72,1.03,3.87,1.91,3.87.99,0,1.8-3.24,1.99-3.91.11-.27.5-1.44.5-1.76,0-.4-.8-3.19-1.95-3.96-.77-.45-1.42-1.08-1.42-2.21,0-.27-.54-2.97,7.46-2.97,7.42,0,7.27,2.02,7.27,2.79,0,1.49-1.72,1.89-1.72,3.02,0,1.21,1.3,4,1.68,4.99.27.72,1.11,3.51,2.03,3.51,1.3,0,2.95-7.65,2.95-8.28,0-1.94-2.49-.95-2.49-3.42,0-2.75,3.9-2.61,5.47-2.61s4.44.23,4.44,2.74c0,2.21-1.61,1.62-2.64,4.77l-6.58,20.25c-.8,2.43-1.68,4.77-3.86,4.77-1.91,0-2.52-1.22-3.21-3.1l-3.52-9.85Z"/><path class="cls-3" d="M206.71,95.85c0,5.31,2.26,3.38,2.26,5.76,0,3.06-4.86,3.06-6.58,3.06-6.58,0-6.85-1.75-6.85-2.83,0-1.62,1.57-1.71,2.03-3.1.5-1.57.57-8.1.15-9.76-.34-1.57-2.3-1.08-2.3-3.1,0-3.19,9.72-4.54,10.1-4.54,1.15,0,1.19,1.03,1.19,1.98v12.55ZM199.14,79.87c-1.61,0-3.33-.85-3.33-3.06,0-2.97,5.05-4.19,7-4.19,1.53,0,3.71.59,3.71,2.83,0,3.51-5.2,4.41-7.38,4.41Z"/><path class="cls-3" d="M220.69,96.66c0,4.36,1.3,3.6,1.3,5.31,0,2.79-5.09,2.7-6.66,2.7s-5.43,0-5.43-2.7c0-2.16,1.76-.22,1.87-4.63l.15-6.75c.08-3.33-2.26-2.25-2.26-4.63s8.8-4.63,9.56-4.63c.84,0,1.38.85,1.38,1.75,0,.27-.04.54-.04.81,0,.54.19,1.17.77,1.17.61,0,.96-.95,1.72-1.89.77-.9,1.91-1.84,4.09-1.84,7.92,0,6.58,9.13,6.96,15.97.19,3.55,1.76,2.75,1.76,4.68,0,.81.15,2.7-7.04,2.7-1.38,0-5.05.09-5.05-2.43,0-1.62,1.26-.85,1.45-3.78.19-3.19,1.26-10.39-2.33-10.39-2.45,0-2.22,3.1-2.22,5.13v3.46Z"/><path class="cls-3" d="M247.85,94.45c0,3.02,1.07,3.73,2.1,3.73,1.19,0,1.87-1.03,2.56-1.03.77,0,1.3,1.26,1.3,2.07,0,2.97-4.36,5.58-8.22,5.58-1.95,0-6.85-.99-6.85-8.14v-9.27c0-.81,0-1.12-.19-1.26-.19-.13-.61-.04-1.49-.04-.99,0-1.49.04-1.68-.18-.27-.32-.19-.77-.19-1.8,0-.63-.11-1.12.34-1.48l8.72-6.52c.88-.63.84-.5,1.99-.5,1.53,0,1.61-.18,1.61,1.89,0,1.4-.08,2.79.11,3.33.11.36.38.36,1.38.36h2.68c1.65,0,1.65.14,1.65,2.16,0,2.56-.27,2.74-1.76,2.74h-2.64c-1.34,0-1.42.04-1.42,1.67v6.7Z"/><path class="cls-3" d="M263.72,93.82c-.42,0-1.03-.13-1.03.63,0,2.25,2.49,4.14,4.28,4.14,2.87,0,4.28-2.02,5.09-2.02s1.49,1.39,1.49,2.25c0,3.46-5.39,5.98-8.84,5.98-6.89,0-10.44-5.85-10.44-11.65,0-6.93,5.01-11.97,10.75-11.97,6.5,0,9.37,5.9,9.37,9.27,0,2.97-1.15,3.38-2.37,3.38h-8.3ZM267.05,88.15c0-1.62-.84-2.88-2.26-2.88-1.26,0-2.29,1.53-2.29,2.97,0,1.62,1.3,1.26,2.29,1.26s2.26.27,2.26-1.35Z"/><path class="cls-3" d="M277.78,90.54c0-4.41-2.37-1.94-2.37-4.68,0-3.55,8.95-4.54,9.3-4.54,1.45,0,1.49.45,1.65,1.98.04.54,0,1.58.65,1.58.92,0,1.49-3.55,4.78-3.55,2.56,0,4.25,2.25,4.25,5.22s-2.18,5.4-4.71,5.4-3.18-2.56-4.17-2.56c-1.07,0-.88,3.01-.88,3.82,0,1.35.11,3.24.31,4.95.23,1.98,3.14.77,3.14,3.46,0,2.83-3.37,3.06-7.57,3.06-1.76,0-6.96.09-6.96-3.02,0-1.89,1.76-1.89,2.18-3.46.31-1.12.42-3.69.42-4.95v-2.7Z"/><path class="cls-3" d="M333.8,96.97c0,6.16-3.56,9.84-5.54,9.84-2.72,0-.35-2.64-4.85-2.64h-16.33c-.89,0-2.87.11-2.87-1.43,0-.88-.1-.88,3.61-4.78,2.52-2.64,8.51-9.51,8.51-13.42,0-1.92-1.04-3.13-2.77-3.13-3.02,0-3.61,3.19-5.89,3.19-1.44,0-3.22-1.54-3.22-3.19,0-4.84,9.31-9.62,15.39-9.62,8.37,0,11.83,4.29,11.83,8.63,0,7.04-8.32,11.55-8.32,13.8,0,1.26,1.19,1.92,2.18,1.92,3.51,0,4.41-3.3,6.04-3.3,1.83,0,2.23,2.53,2.23,4.12Z"/><path class="cls-3" d="M349.71,71.78c8.37,0,14.8,7.81,14.8,16.94,0,10.83-7.92,16.22-14.4,16.22-8.56,0-14.21-7.75-14.21-16.88s5.1-16.28,13.81-16.28ZM349.36,79.98c-2.08,0-2.38,2.64-2.38,4.4,0,2.47.89,12.37,4.11,12.37,1.98,0,2.33-2.86,2.33-4.51,0-2.64-.79-12.26-4.06-12.26Z"/><path class="cls-3" d="M395.27,96.97c0,6.16-3.56,9.84-5.54,9.84-2.72,0-.35-2.64-4.85-2.64h-16.33c-.89,0-2.87.11-2.87-1.43,0-.88-.1-.88,3.61-4.78,2.52-2.64,8.51-9.51,8.51-13.42,0-1.92-1.04-3.13-2.77-3.13-3.02,0-3.61,3.19-5.89,3.19-1.44,0-3.22-1.54-3.22-3.19,0-4.84,9.31-9.62,15.39-9.62,8.37,0,11.83,4.29,11.83,8.63,0,7.04-8.32,11.55-8.32,13.8,0,1.26,1.19,1.92,2.18,1.92,3.51,0,4.41-3.3,6.04-3.3,1.83,0,2.23,2.53,2.23,4.12Z"/><path class="cls-3" d="M411.06,81.21c-1.14,0-2.52-.05-2.52,1.53,0,1.24,1.48,1.19,2.52,1.29,12.82,1.44,15.39,7.08,15.39,10.49,0,6.39-7.38,11.98-18.02,11.98-7.92,0-9.5-2.23-9.5-4.01,0-.69.35-2.82,1.39-2.82.3,0,3.12.99,5.59.99,2.08,0,4.8-.84,4.8-3.37,0-3.22-4.65-4.46-7.18-4.9-1.34-.2-5-.3-5-2.43,0-2.48,2.38-9.31,3.32-11.83,2.28-6.19,2.67-5.84,5.15-5.84h16.88c1.83,0,2.33.1,2.33,2.18,0,2.28-1.09,6.73-4.75,6.73h-10.4Z"/><path class="cls-3" d="M149.6,36.74c0-7.44-3.1-4.37-3.1-7.34,0-2.64,3.18-2.98,4.81-2.98.86,0,1.67.1,2.53.14.82.1,1.67.19,2.49.19,1.31,0,2.61-.1,3.96-.19,1.31-.05,2.65-.14,3.96-.14,4.61,0,9.96,2.4,9.96,8.78,0,2.88-1.18,5.66-3.47,6.96-.37.24-.65.38-.65.96,0,.72.53.91,1.02,1.15,2.86,1.25,4.12,3.46,4.69,8.64.49,4.46,3.14,1.78,3.14,4.7,0,1.82-1.88,3.74-6.49,3.74-6.53,0-7.34-4.42-8.61-10.75-.45-2.21-1.14-4.37-3.39-4.37-.9,0-1.22.14-1.22,3.17,0,1.39.08,3.31.29,4.66.33,2.21,2.41,1.54,2.41,3.84,0,1.73-1.02,3.02-7.63,3.02-1.96,0-7.75,0-7.75-3.5,0-2.5,3.06-.77,3.06-7.01v-13.68ZM159.07,38.85c-.08,1.25-.29,2.3,1.06,2.3,2.65,0,3.51-1.73,3.51-4.7,0-2.35-.49-4.75-2.86-4.75-1.51,0-1.47,1.1-1.55,2.59l-.16,4.56Z"/><path class="cls-3" d="M197.64,26.76c1.75,0,2.57-.19,3.18-.34.57-.19.9-.34,1.67-.34,1.59,0,4.9,3.7,4.9,8.88,0,2.4-1.06,3.98-3.14,3.98-3.55,0-3.51-5.66-5.59-5.66-1.59,0-1.43,2.59-1.43,2.98v14.74c0,5.71,3.75,2.98,3.75,6.34,0,1.49-.77,3.6-8.41,3.6-2.08,0-9.71.1-9.71-3.6,0-2.54,2.53-1.54,3.35-3.36.41-1.01.57-3.89.61-5.09l.33-10.61c.16-5.04-.69-4.99-1.27-4.99-1.84,0-2.73,5.66-6.04,5.66-1.59,0-2.53-1.73-2.53-3.46,0-4.08,2.94-9.41,5.26-9.41.29,0,.73.14,1.51.34.78.14,1.88.34,3.51.34h10.04Z"/><path class="cls-3" d="M213.08,43.08c1.26-3.31,2.94-7.54,2.94-11.33,0-3.31,1.31-5.81,4.94-5.81s5.79,4.27,7.39,7.44c.69,1.39,6.85,16.08,8.32,20.02,1.35,3.65,3.55,1.44,3.55,4.18,0,3.5-5.79,3.36-7.83,3.36-5.83,0-9.34-.05-9.34-3.02,0-2.3,2.49-1.44,2.49-3.12,0-2.16-1.02-2.35-7.59-2.35-2.12,0-3.39.1-3.39,2.45,0,1.87,2.61.62,2.61,3.12,0,2.88-4.41,2.93-6.04,2.93-5.83,0-6.37-1.3-6.37-2.83,0-2.26,2.2-1.58,3.39-3.31.9-1.3,1.75-3.6,2.37-5.14l2.57-6.58ZM221.65,46.53c.41,0,1.63.1,1.63-.62s-1.18-3.22-1.51-3.89c-.37-.77-1.06-2.54-1.96-2.54-.98,0-1.67,2.88-1.84,3.41s-.86,2.4-.86,2.98c0,.82,1.02.67,1.47.67h3.06Z"/><path class="cls-3" d="M263.06,51.53c0,5.66,2.41,3.6,2.41,6.14,0,3.26-5.18,3.26-7.02,3.26-7.02,0-7.3-1.87-7.3-3.02,0-1.73,1.67-1.82,2.16-3.31.53-1.68.61-8.64.16-10.42-.37-1.68-2.45-1.15-2.45-3.31,0-3.41,10.36-4.85,10.77-4.85,1.22,0,1.27,1.1,1.27,2.11v13.39ZM254.98,34.48c-1.71,0-3.55-.91-3.55-3.26,0-3.17,5.39-4.46,7.47-4.46,1.63,0,3.96.62,3.96,3.02,0,3.74-5.55,4.7-7.88,4.7Z"/><path class="cls-3" d="M277.96,52.39c0,4.66,1.39,3.84,1.39,5.66,0,2.98-5.43,2.88-7.1,2.88s-5.79,0-5.79-2.88c0-2.3,1.88-.24,2-4.94l.16-7.2c.08-3.55-2.41-2.4-2.41-4.94s9.38-4.94,10.2-4.94c.9,0,1.47.91,1.47,1.87,0,.29-.04.58-.04.86,0,.58.2,1.25.82,1.25.65,0,1.02-1.01,1.84-2.02.82-.96,2.04-1.97,4.37-1.97,8.45,0,7.02,9.75,7.43,17.04.2,3.79,1.88,2.93,1.88,4.99,0,.86.16,2.88-7.51,2.88-1.47,0-5.39.1-5.39-2.59,0-1.73,1.35-.91,1.55-4.03.2-3.41,1.35-11.09-2.49-11.09-2.61,0-2.37,3.31-2.37,5.47v3.7Z"/><path class="cls-3" d="M327.98,49.94c-.24,10.18-9.22,11.14-11.51,11.14-4.73,0-11.79-2.3-11.79-9.17,0-3.12,1.84-5.76,4.57-5.76,2.37,0,4.73,1.73,4.73,4.75,0,.82-.29,1.63-.29,2.26,0,1.2.82,1.87,1.8,1.78,4.81-.58,2.53-10.37,2.86-19.01.2-5.33-3.67-2.5-3.67-5.71,0-.91.33-3.98,8.28-3.98s8.61,2.21,8.61,3.55c0,2.5-3.18,1.34-3.26,5.38l-.33,14.79Z"/><path class="cls-3" d="M351.91,48.93c0,8.45,2.45,3.84,2.45,6.43,0,2.74-3.18,5.71-6.16,5.71-3.22,0-3.3-2.45-4.32-2.45-.49,0-1.02.62-1.92,1.2-.9.62-2.12,1.25-4,1.25-3.39,0-6.77-2.11-6.77-6.86,0-3.41,2.77-7.63,9.96-7.63,1.27,0,1.84.1,1.84-1.63,0-1.58-.04-4.9-1.92-4.9-2.45,0-2.69,5.18-6.32,5.18-1.31,0-2.29-1.1-2.29-2.64,0-4.08,6.9-6.72,10.77-6.72,2.33,0,8.69,1.06,8.69,8.26v4.8ZM339.67,53.16c0,1.25.57,2.59,1.75,2.59,1.55,0,1.67-1.97,1.67-3.41,0-1.06.04-2.26-1.1-2.26-1.39,0-2.33,1.54-2.33,3.07Z"/><path class="cls-3" d="M357.62,50.9c0-5.04-.25-6.14-.45-6.38-.53-.62-2.73,0-2.73-2.74,0-3.26,8.41-5.76,11.42-5.76.98,0,1.14.38,1.14,1.44,0,.34.04,1.01.45,1.01.57,0,2.86-2.59,6.2-2.59,5.34,0,8.2,6.29,8.2,11.91,0,6.43-3.88,13.3-9.83,13.3-1.92,0-3.84-1.2-4.2-1.2-.57,0-.65,1.01-.65,1.54,0,3.65,2.53,2.5,2.53,4.85,0,2.69-3.71,3.02-5.3,3.02-5.47,0-9.75-2.35-9.75-4.8,0-2.16,1.67-1.34,2.41-3.22.41-1.01.57-2.4.57-7.73v-2.64ZM368.8,42.98c-1.47,0-1.96.72-1.96,9.46,0,1.58.65,2.16,2.08,2.16,2.53,0,2.86-3.22,2.86-5.52s-.41-6.1-2.98-6.1Z"/><path class="cls-3" d="M403.56,48.93c0,8.45,2.45,3.84,2.45,6.43,0,2.74-3.18,5.71-6.16,5.71-3.22,0-3.3-2.45-4.32-2.45-.49,0-1.02.62-1.92,1.2-.9.62-2.12,1.25-4,1.25-3.39,0-6.77-2.11-6.77-6.86,0-3.41,2.77-7.63,9.96-7.63,1.27,0,1.84.1,1.84-1.63,0-1.58-.04-4.9-1.92-4.9-2.45,0-2.69,5.18-6.32,5.18-1.31,0-2.29-1.1-2.29-2.64,0-4.08,6.9-6.72,10.77-6.72,2.33,0,8.69,1.06,8.69,8.26v4.8ZM391.32,53.16c0,1.25.57,2.59,1.75,2.59,1.55,0,1.67-1.97,1.67-3.41,0-1.06.04-2.26-1.1-2.26-1.39,0-2.33,1.54-2.33,3.07Z"/><path class="cls-3" d="M418.46,52.39c0,4.66,1.39,3.84,1.39,5.66,0,2.98-5.43,2.88-7.1,2.88s-5.79,0-5.79-2.88c0-2.3,1.88-.24,2-4.94l.16-7.2c.08-3.55-2.41-2.4-2.41-4.94s9.38-4.94,10.2-4.94c.9,0,1.47.91,1.47,1.87,0,.29-.04.58-.04.86,0,.58.2,1.25.82,1.25.65,0,1.02-1.01,1.84-2.02.82-.96,2.04-1.97,4.37-1.97,8.45,0,7.02,9.75,7.43,17.04.2,3.79,1.88,2.93,1.88,4.99,0,.86.16,2.88-7.51,2.88-1.47,0-5.39.1-5.39-2.59,0-1.73,1.35-.91,1.55-4.03.2-3.41,1.35-11.09-2.49-11.09-2.61,0-2.37,3.31-2.37,5.47v3.7Z"/><path class="cls-2" d="M122.88,114.33l-3.57-3.57s.05.05.07.08c-.34-.35-.7-.66-1.08-.94-.1-.51-.19-1.13-.28-1.89-1.17-10.62-3.4-19.24-9.39-25.23l-3.57-3.57c.05.05.09.11.15.17-.35-.36-.72-.7-1.09-1.04,5.87-7.2,7.2-18.26,5.91-27.49-1.1-7.91-2.5-12.85-7.13-19.1-1-1.35-2.38-2.38-3.57-3.57.16.16.29.33.45.5-5.27-5.59-13.49-8.68-24.05-8.68-3.09,0-7.1.17-10.65.32l-3.04.12-.51.03c-3.84.27-7.49.53-11.06.53-2.05,0-4.34-.24-6.7-.53l-.38-.03c-.81-.05-1.63-.11-2.44-.17-1.73-.13-3.51-.27-5.44-.27-19.01,0-20.5,11.48-20.51,15,0,4.12,1.43,6.61,3.04,8.2-.02-.02-.04-.04-.06-.06,1.19,1.19,2.38,2.38,3.57,3.57.61.61,1.24,1.08,1.83,1.46.5,1.6.85,4.23.85,8.72l-.05,40.78c0,8.27-1.73,9.52-3.55,10.83-1.96,1.42-5.59,4.05-5.6,10.06,0,4.04,1.33,7.33,3.96,9.9-.04-.04-.1-.08-.14-.12,1.19,1.19,2.38,2.38,3.57,3.57,4.51,4.51,13,6.79,25.4,6.79,9.21,0,25.63-.03,28.44-11.56.67.86,1.4,1.68,2.18,2.44-.08-.08-.18-.15-.26-.24,1.19,1.19,2.38,2.38,3.57,3.57,4.4,4.4,10.71,7.09,20.18,7.09,22.08,0,23.82-13.24,23.82-17.29,0-4.17-1.2-6.72-2.86-8.38Z"/><path class="cls-3" d="M30.35,56.92c0-22.19-9.25-13.03-9.25-21.9,0-7.87,9.49-8.88,14.36-8.88,2.55,0,4.99.28,7.54.43,2.43.29,4.99.57,7.42.57,3.89,0,7.79-.29,11.8-.57,3.89-.14,7.91-.43,11.8-.43,13.75,0,29.69,7.16,29.69,26.2,0,8.59-3.53,16.9-10.34,20.76-1.09.72-1.94,1.14-1.94,2.86,0,2.15,1.58,2.72,3.04,3.44,8.52,3.72,12.29,10.31,13.99,25.77,1.46,13.32,9.37,5.3,9.37,14.03,0,5.44-5.6,11.17-19.35,11.17-19.47,0-21.9-13.17-25.67-32.07-1.34-6.59-3.41-13.03-10.1-13.03-2.68,0-3.65.43-3.65,9.45,0,4.15.24,9.88.85,13.89.97,6.59,7.18,4.58,7.18,11.45,0,5.16-3.04,9.02-22.75,9.02-5.84,0-23.12,0-23.12-10.45,0-7.45,9.12-2.29,9.12-20.9v-40.81Z"/><path class="cls-2" d="M48.45,53.34c-1.37,0-2.61-.92-2.97-2.31-.12-.48-1.19-4.74-1.12-7.5.05-1.69,1.46-3.03,3.15-2.98,1.69.05,3.03,1.46,2.98,3.15-.04,1.43.55,4.32.93,5.8.42,1.64-.57,3.31-2.21,3.73-.26.07-.51.1-.76.1Z"/><path class="cls-2" d="M66.99,77.96c-2.99,0-5.62-.83-7.84-2.48-5.04-3.74-6.03-10.33-6.07-10.6-.05-.37,0-.74.14-1.08,1.07-2.55,4.04-4.61,8.84-6.15,7.07-2.26,17.46-2.92,21.65-.32.6.37.97,1.03.97,1.74,0,5.71-5.13,17.16-14.95,18.68-.94.15-1.86.22-2.74.22ZM57.25,64.91c.34,1.46,1.45,5.15,4.35,7.29,1.97,1.45,4.5,1.96,7.5,1.49,6.84-1.06,10.69-9,11.37-13.36-3.34-1.03-10.87-.81-17.17,1.2-3.01.96-5.2,2.19-6.05,3.37ZM55.1,64.59h0,0Z"/><path class="cls-2" d="M87.31,47.72c-.19,0-.38-.03-.57-.08-.25-.07-6.14-1.8-9.44-3.62-.61-.33-1-.95-1.05-1.64-.05-.69.25-1.36.8-1.78,2.09-1.59,7.75-4.16,8.39-4.45,1.03-.47,2.24,0,2.71,1.02.47,1.03,0,2.24-1.02,2.71-.9.41-2.7,1.25-4.37,2.11,2.55.97,5.09,1.72,5.13,1.73,1.08.32,1.71,1.45,1.39,2.54-.26.89-1.08,1.47-1.96,1.47Z"/><path class="cls-4" d="M44.71,73.17c-1.21-.54-2.3-1.18-3.31-1.84,1.95-1.09,3.37-1.81,3.4-1.82,1.01-.51,1.41-1.74.9-2.75-.51-1.01-1.74-1.41-2.75-.9-.11.05-1.2.61-2.76,1.47.11-.73.22-1.43.33-2.02.2-1.11-.53-2.18-1.64-2.38-1.12-.21-2.18.53-2.38,1.64-.05.26-.2,1.13-.38,2.32-.53-.58-.84-.97-.85-.98-.69-.9-1.97-1.07-2.87-.39-.9.69-1.07,1.97-.39,2.87.07.09.85,1.1,2.23,2.45-.82.52-1.63,1.06-2.39,1.61-.92.65-1.14,1.93-.48,2.85.4.56,1.03.86,1.67.86.41,0,.82-.12,1.18-.38.42-.3.86-.59,1.3-.89.03.92.12,1.77.3,2.47.23.93,1.06,1.56,1.98,1.56.16,0,.33-.02.49-.06,1.1-.27,1.77-1.38,1.5-2.47-.09-.35-.13-.81-.16-1.31,1.04.65,2.18,1.28,3.41,1.83.27.12.56.18.84.18.78,0,1.52-.45,1.87-1.21.46-1.03,0-2.24-1.03-2.7Z"/></svg>