<?xml version="1.0" encoding="UTF-8"?><svg xmlns="http://www.w3.org/2000/svg" width="160" height="160" viewBox="0 0 160 160"><defs><style>.cls-1{fill:#fff;}.cls-2{fill:none;stroke:#000;stroke-miterlimit:10;}.cls-3{fill:#ff9bc1;}.cls-4{fill:#1b303a;}</style></defs><g id="_画像"><path class="cls-4" d="m145.64,122.91l-4.46-4.46s.06.07.09.1c-.43-.44-.88-.83-1.35-1.18-.12-.64-.24-1.41-.34-2.36-1.46-13.28-4.25-24.05-11.74-31.54l-4.46-4.46c.07.07.12.14.18.21-.44-.44-.9-.87-1.37-1.29,7.34-9,9.01-22.82,7.39-34.36-1.38-9.88-3.12-16.06-8.92-23.88-1.25-1.69-2.97-2.97-4.46-4.46.2.2.37.42.56.62-6.59-6.99-16.86-10.85-30.07-10.85-3.86,0-8.87.21-13.31.4l-3.8.15-.64.04c-4.8.34-9.36.66-13.82.66-2.56,0-5.42-.3-8.38-.66l-.47-.04c-1.02-.06-2.03-.13-3.05-.21-2.17-.17-4.39-.34-6.8-.34-23.76,0-25.63,14.35-25.63,18.76,0,5.16,1.79,8.27,3.8,10.24-.03-.03-.05-.04-.08-.07,1.49,1.49,2.97,2.97,4.46,4.46.76.76,1.55,1.35,2.29,1.82.62,2,1.07,5.28,1.06,10.9l-.06,50.97c-.01,10.34-2.16,11.9-4.44,13.54-2.45,1.77-6.99,5.07-7,12.58,0,5.05,1.66,9.17,4.95,12.38-.05-.05-.12-.1-.17-.15,1.49,1.49,2.97,2.97,4.46,4.46,5.64,5.64,16.25,8.48,31.75,8.48,11.52,0,32.04-.04,35.55-14.45.84,1.08,1.75,2.09,2.73,3.05-.11-.1-.22-.19-.33-.3,1.49,1.49,2.97,2.97,4.46,4.46,5.5,5.5,13.39,8.86,25.23,8.86,27.61,0,29.77-16.55,29.78-21.62,0-5.21-1.49-8.4-3.57-10.48Z"/><path class="cls-1" d="m29.98,51.15c0-27.74-11.56-16.28-11.56-27.38,0-9.84,11.86-11.1,17.95-11.1,3.19,0,6.23.36,9.43.54,3.04.36,6.24.72,9.28.72,4.87,0,9.73-.36,14.75-.72,4.87-.18,9.89-.54,14.75-.54,17.19,0,37.11,8.95,37.11,32.74,0,10.74-4.41,21.12-12.93,25.95-1.37.9-2.43,1.43-2.43,3.58,0,2.69,1.98,3.4,3.8,4.3,10.65,4.65,15.36,12.88,17.49,32.21,1.83,16.65,11.71,6.63,11.71,17.54,0,6.8-7,13.96-24.18,13.96-24.33,0-27.38-16.47-32.09-40.09-1.67-8.23-4.26-16.29-12.62-16.29-3.34,0-4.56.54-4.56,11.81,0,5.19.3,12.35,1.06,17.36,1.22,8.23,8.97,5.73,8.97,14.31,0,6.45-3.8,11.28-28.44,11.28-7.3,0-28.9,0-28.9-13.06,0-9.31,11.41-2.87,11.41-26.13v-51.01Z"/><path class="cls-3" d="m47.93,71.47c-1.52-.68-2.88-1.48-4.14-2.3,2.43-1.36,4.21-2.26,4.24-2.28,1.26-.64,1.76-2.18,1.12-3.44-.64-1.26-2.17-1.76-3.43-1.12-.13.07-1.5.76-3.46,1.84.14-.92.27-1.79.41-2.52.26-1.39-.66-2.72-2.05-2.98-1.4-.26-2.72.66-2.98,2.05-.06.33-.26,1.42-.47,2.89-.67-.72-1.05-1.21-1.07-1.22-.86-1.12-2.46-1.34-3.58-.48-1.12.86-1.34,2.46-.48,3.58.09.12,1.06,1.37,2.79,3.06-1.02.66-2.03,1.33-2.99,2.01-1.15.82-1.42,2.41-.6,3.57.5.7,1.29,1.08,2.09,1.08.51,0,1.03-.15,1.48-.47.52-.37,1.07-.74,1.63-1.11.04,1.15.16,2.21.37,3.09.29,1.17,1.33,1.95,2.48,1.95.2,0,.41-.02.61-.07,1.37-.34,2.21-1.72,1.87-3.09-.11-.44-.17-1.01-.2-1.64,1.3.82,2.72,1.6,4.26,2.29.34.15.7.23,1.05.23.97,0,1.91-.56,2.33-1.51.58-1.29,0-2.8-1.28-3.38Z"/><path class="cls-4" d="m72.56,64.88c-4.96,0-10.53-1.01-13.45-3.29-1.11-.86-1.31-2.47-.44-3.58.86-1.11,2.47-1.31,3.58-.44,2.15,1.68,8.45,2.63,13.48,2.04,5.45-.64,12.45-3.81,14.98-6.79.91-1.07,2.52-1.2,3.59-.29,1.07.91,1.2,2.52.29,3.59-3.39,3.99-11.41,7.75-18.27,8.55-1.17.14-2.44.21-3.76.21Z"/><path class="cls-4" d="m94.59,41.03c-1.88,0-3.51-1.38-3.78-3.29-.41-2.91-1.04-6.65-1.36-7.6-.66-2.01.43-4.17,2.43-4.83,2-.66,4.17.43,4.83,2.43.69,2.09,1.51,7.81,1.67,8.94.29,2.09-1.16,4.02-3.26,4.32-.18.03-.36.04-.53.04Z"/><path class="cls-4" d="m52.61,46.66c-1.7,0-3.26-1.15-3.7-2.87-.15-.6-1.5-5.93-1.4-9.37.06-2.07,1.76-3.71,3.82-3.71.04,0,.07,0,.11,0,2.11.06,3.77,1.82,3.71,3.93-.05,1.78.68,5.39,1.16,7.25.52,2.05-.71,4.13-2.75,4.65-.32.08-.64.12-.95.12Z"/></g><g id="_ガイド"><rect class="cls-2" width="160" height="160"/></g></svg>