<svg id="画像" xmlns="http://www.w3.org/2000/svg" width="160" height="160" viewBox="0 0 160 160"><defs><style>.cls-1{fill:#2c1810;}.cls-2{fill:#fff;}.cls-3{fill:#ff9bc1;}</style></defs><path class="cls-1" d="M145.64,122.91l-4.46-4.46.09.1a11.41,11.41,0,0,0-1.35-1.18c-.12-.65-.24-1.41-.34-2.36-1.46-13.28-4.26-24.06-11.74-31.54L123.37,79c.07.06.12.14.19.21-.44-.45-.9-.88-1.37-1.3,7.34-9,9-22.82,7.4-34.36-1.38-9.88-3.12-16.06-8.92-23.87a43.67,43.67,0,0,0-4.46-4.46c.19.19.36.41.55.62C110.17,8.86,99.91,5,86.7,5c-3.86,0-8.87.21-13.32.4l-3.8.15-.64,0c-4.8.34-9.36.66-13.82.66a71.71,71.71,0,0,1-8.38-.66l-.47,0c-1-.06-2-.14-3.05-.21C41.05,5.17,38.83,5,36.42,5,12.65,5,10.79,19.35,10.79,23.76c0,5.15,1.79,8.26,3.8,10.24a.27.27,0,0,1-.08-.07L19,38.39a13.89,13.89,0,0,0,2.29,1.83c.62,2,1.06,5.28,1.06,10.9l-.07,51c0,10.34-2.16,11.9-4.44,13.54-2.45,1.77-7,5.06-7,12.58a16.51,16.51,0,0,0,5,12.37c-.06-.05-.13-.09-.18-.14q2.23,2.22,4.46,4.46c5.64,5.64,16.25,8.48,31.75,8.48,11.52,0,32,0,35.54-14.45a30.22,30.22,0,0,0,2.73,3c-.1-.1-.22-.19-.33-.29l4.47,4.46c5.49,5.49,13.39,8.86,25.22,8.86,27.61,0,29.78-16.55,29.78-21.62S147.72,125,145.64,122.91Z"/><path class="cls-2" d="M30,51.15c0-27.74-11.56-16.28-11.56-27.38,0-9.84,11.86-11.09,17.94-11.09,3.2,0,6.24.35,9.43.53a80.53,80.53,0,0,0,9.28.72c4.87,0,9.73-.36,14.75-.72,4.87-.18,9.89-.53,14.76-.53,17.18,0,37.11,9,37.11,32.74,0,10.74-4.41,21.12-12.93,26-1.37.9-2.43,1.43-2.43,3.58,0,2.69,2,3.4,3.8,4.3,10.64,4.65,15.36,12.88,17.49,32.21,1.82,16.65,11.71,6.63,11.71,17.54,0,6.8-7,14-24.18,14-24.34,0-27.38-16.47-32.09-40.09-1.68-8.23-4.26-16.28-12.63-16.28-3.34,0-4.56.54-4.56,11.81a131.16,131.16,0,0,0,1.06,17.36c1.22,8.23,9,5.73,9,14.31,0,6.45-3.81,11.28-28.44,11.28-7.3,0-28.9,0-28.9-13.06C18.57,119,30,125.42,30,102.16Z"/><path class="cls-3" d="M47.93,71.47a29.11,29.11,0,0,1-4.14-2.31C46.23,67.81,48,66.9,48,66.89a2.56,2.56,0,0,0-2.31-4.57c-.14.07-1.5.77-3.46,1.84.14-.92.27-1.79.41-2.52a2.56,2.56,0,0,0-5-.93c-.06.33-.25,1.42-.47,2.9-.66-.73-1-1.21-1.06-1.22a2.56,2.56,0,1,0-4.07,3.09,30.89,30.89,0,0,0,2.79,3.06c-1,.66-2,1.33-3,2a2.56,2.56,0,0,0,1.49,4.64,2.5,2.5,0,0,0,1.47-.47c.53-.37,1.07-.74,1.63-1.11a15.3,15.3,0,0,0,.37,3.09,2.55,2.55,0,1,0,5-1.22,11,11,0,0,1-.2-1.64,34.93,34.93,0,0,0,4.26,2.29,2.62,2.62,0,0,0,1.05.23,2.56,2.56,0,0,0,1-4.89Z"/><path class="cls-1" d="M72.56,64.88c-5,0-10.53-1-13.45-3.29a2.55,2.55,0,1,1,3.13-4c2.15,1.67,8.45,2.63,13.48,2,5.45-.64,12.45-3.81,15-6.78a2.55,2.55,0,1,1,3.89,3.29c-3.39,4-11.41,7.75-18.27,8.56A34.17,34.17,0,0,1,72.56,64.88Z"/><path class="cls-1" d="M94.59,41a3.82,3.82,0,0,1-3.78-3.29,74.7,74.7,0,0,0-1.36-7.6,3.82,3.82,0,0,1,7.26-2.4,79.46,79.46,0,0,1,1.67,8.94A3.83,3.83,0,0,1,95.13,41,4.89,4.89,0,0,1,94.59,41Z"/><path class="cls-1" d="M52.61,46.66a3.82,3.82,0,0,1-3.7-2.87,42.22,42.22,0,0,1-1.4-9.37,3.83,3.83,0,0,1,3.82-3.72h.11a3.82,3.82,0,0,1,3.71,3.93,35.74,35.74,0,0,0,1.16,7.25,3.83,3.83,0,0,1-2.75,4.66A3.93,3.93,0,0,1,52.61,46.66Z"/></svg>