<svg id="画像" xmlns="http://www.w3.org/2000/svg" width="30" height="98" viewBox="0 0 30 98"><defs><style>.cls-1{fill:#fff;}</style></defs><path class="cls-1" d="M21.13,65.16H20.7v.67a3.61,3.61,0,0,0,.38,1.86,1.12,1.12,0,0,0,1,.64,1,1,0,0,0,.76-.3,1.14,1.14,0,0,0,.27-.8,2.06,2.06,0,0,0-.56-1.48A1.87,1.87,0,0,0,21.13,65.16Z"/><path class="cls-1" d="M13,7a7,7,0,0,0-7,7V84a7,7,0,0,0,7,7H30V7ZM25,78H18v2.16H16V78h-.58a3.78,3.78,0,0,1-2.79-1,3.77,3.77,0,0,1-1-2.76A9,9,0,0,1,12,72.07l2.16.42a3.4,3.4,0,0,0-.27,1.33,1.2,1.2,0,0,0,.34,1,2,2,0,0,0,1.24.28H16V72.25h2v2.83h7Zm-.58-7.86a2.68,2.68,0,0,1-2.07.81,2.9,2.9,0,0,1-2.48-1.32,6.62,6.62,0,0,1-.94-3.81v-.67h0a1.5,1.5,0,0,0-1.1.32,1.59,1.59,0,0,0-.31,1.1,7.92,7.92,0,0,0,.81,3.51l-2,.38a9.74,9.74,0,0,1-.81-4,4.8,4.8,0,0,1,.86-3.21,3.54,3.54,0,0,1,2.79-1h3.37A11.72,11.72,0,0,0,25,62v2.74c-.54.09-1,.15-1.31.18v0a3.62,3.62,0,0,1,1.09,1.31,4,4,0,0,1,.4,1.72A3,3,0,0,1,24.42,70.15Zm-6-13.46a2.67,2.67,0,0,0,1.68.55H25v2.88H15.64V57.46l1.3-.07v0a3.64,3.64,0,0,1-1.08-1.29,3.3,3.3,0,0,1-.4-1.57,3,3,0,0,1,1-2.47,5.66,5.66,0,0,1,3.38-.77H25v2.84H20.14a4.2,4.2,0,0,0-1.95.31,1.16,1.16,0,0,0-.5,1.08A1.53,1.53,0,0,0,18.41,56.69Zm6-11.46a2.68,2.68,0,0,1-2.07.81,2.9,2.9,0,0,1-2.48-1.32,6.57,6.57,0,0,1-.94-3.81v-.66h0a1.51,1.51,0,0,0-1.1.31,1.6,1.6,0,0,0-.31,1.11,8,8,0,0,0,.81,3.51l-2,.38a9.79,9.79,0,0,1-.81-4,4.8,4.8,0,0,1,.86-3.21,3.57,3.57,0,0,1,2.79-1h3.37A11.72,11.72,0,0,0,25,37.1v2.73a11.34,11.34,0,0,1-1.31.18v0a3.58,3.58,0,0,1,1.09,1.3,4,4,0,0,1,.4,1.72A3,3,0,0,1,24.42,45.23Zm-9-17.1h2.3a4.75,4.75,0,0,0,.87,3.08A2.86,2.86,0,0,0,21,32.27h4v2.94H15.64V32.47l1.8,0v0A5.19,5.19,0,0,1,15.46,28.13Zm9-4a3.42,3.42,0,0,1-2.52.8H18v1.93H16V24.89H12.58V22H16V18.9h2V22H21.4a2.4,2.4,0,0,0,1.3-.24,1,1,0,0,0,.32-.84,5,5,0,0,0-.29-1.62l2.09-.33a9.7,9.7,0,0,1,.36,2.63A3.56,3.56,0,0,1,24.41,24.09Z"/><path class="cls-1" d="M21.13,40.25H20.7v.66a3.59,3.59,0,0,0,.38,1.86,1.12,1.12,0,0,0,1,.64,1,1,0,0,0,.76-.29,1.16,1.16,0,0,0,.27-.8,2.09,2.09,0,0,0-.56-1.49A1.86,1.86,0,0,0,21.13,40.25Z"/></svg>