<?xml version="1.0" encoding="UTF-8"?><svg id="_åƒ" xmlns="http://www.w3.org/2000/svg" width="30" height="88" viewBox="0 0 30 88"><defs><style>.cls-1{fill:#fff;}</style></defs><path class="cls-1" d="M17.42,31.08c0,.55,.18,.99,.53,1.31s.87,.51,1.54,.56v-3.71c-1.38,.01-2.07,.62-2.07,1.84Z"/><path class="cls-1" d="M17.42,41.44c0,.55,.18,.99,.53,1.31s.87,.51,1.54,.56v-3.71c-1.38,.01-2.07,.62-2.07,1.84Z"/><path class="cls-1" d="M13,7c-3.87,0-7,3.13-7,7v60c0,3.87,3.13,7,7,7H30V7H13Zm11.41,60.54c-.52,.53-1.36,.8-2.52,.8h-3.85v1.93h-2.03v-1.93h-3.42v-2.93h3.42v-3.06h2.03v3.06h3.37c.65,0,1.08-.08,1.3-.23,.22-.16,.32-.44,.32-.85,0-.52-.1-1.06-.29-1.62l2.09-.32c.24,.85,.36,1.73,.36,2.63,0,1.15-.26,2-.77,2.53Zm-8.77-11.99v-3.37l7.02-1.24v-.04l-7.02-1.15v-2.84l9.36,2.29v3.46l-6.84,1.24v.04l6.84,1.24v3.44l-9.36,2.29v-2.92l7.02-1.15v-.04l-7.02-1.24Zm8.23-10.75c-.88,.91-2.06,1.36-3.55,1.36s-2.68-.42-3.55-1.26c-.87-.84-1.31-1.97-1.31-3.38s.42-2.58,1.25-3.38c.83-.8,2.02-1.21,3.57-1.21,.37,0,.7,.02,.99,.07v6.3c.59-.08,1.05-.33,1.38-.75,.33-.41,.5-.95,.5-1.61,0-.89-.22-1.76-.65-2.61l1.96-.63c.48,1.07,.72,2.24,.72,3.51,0,1.49-.44,2.68-1.31,3.59Zm0-10.36c-.88,.91-2.06,1.36-3.55,1.36s-2.68-.42-3.55-1.26c-.87-.84-1.31-1.97-1.31-3.38s.42-2.58,1.25-3.38c.83-.8,2.02-1.21,3.57-1.21,.37,0,.7,.02,.99,.07v6.3c.59-.08,1.05-.33,1.38-.75,.33-.41,.5-.95,.5-1.61,0-.89-.22-1.76-.65-2.61l1.96-.63c.48,1.07,.72,2.24,.72,3.51,0,1.49-.44,2.68-1.31,3.59Zm.54-11.69c-.52,.53-1.36,.8-2.52,.8h-3.85v1.93h-2.03v-1.93h-3.42v-2.93h3.42v-3.06h2.03v3.06h3.37c.65,0,1.08-.08,1.3-.23,.22-.16,.32-.44,.32-.85,0-.52-.1-1.06-.29-1.62l2.09-.32c.24,.85,.36,1.73,.36,2.63,0,1.15-.26,2-.77,2.53Z"/></svg>