<?xml version="1.0" encoding="UTF-8"?><svg id="_åƒ" xmlns="http://www.w3.org/2000/svg" width="30" height="98" viewBox="0 0 30 98"><defs><style>.cls-1{fill:#fff;}</style></defs><path class="cls-1" d="M21.13,28.96h-.43v.67c0,.82,.13,1.44,.38,1.86s.59,.64,1.01,.64c.32,0,.58-.1,.76-.3s.27-.46,.27-.8c0-.6-.19-1.09-.56-1.49-.37-.39-.85-.58-1.42-.58Z"/><path class="cls-1" d="M22.3,57.56c-.44-.34-1.07-.5-1.89-.5h-.18c-.8,0-1.43,.17-1.88,.5-.45,.34-.68,.78-.68,1.33s.22,1.03,.67,1.35c.44,.32,1.1,.49,1.98,.49s1.49-.17,1.95-.51c.46-.34,.69-.78,.69-1.32s-.22-1-.67-1.33Z"/><path class="cls-1" d="M22.27,73.68c-.46-.34-1.11-.51-1.95-.51s-1.54,.16-1.98,.49c-.44,.32-.67,.77-.67,1.35s.22,1,.68,1.33c.45,.34,1.08,.5,1.88,.5h.18c.82,0,1.45-.17,1.89-.5s.67-.78,.67-1.33-.23-.98-.69-1.32Z"/><path class="cls-1" d="M13,7c-3.87,0-7,3.13-7,7V84c0,3.87,3.13,7,7,7H30V7H13Zm4.76,9.84c0,1.34,.29,2.37,.86,3.08s1.36,1.06,2.36,1.06h4.01v2.93H15.64v-2.74l1.8-.02v-.04c-1.32-1.04-1.98-2.47-1.98-4.28h2.3Zm-6.26,48.59h2.34v3.04h-2.34v-3.04Zm13.5,11.62v2.66H11.5v-2.88h5.27v-.04c-.88-.7-1.31-1.58-1.31-2.66,0-1.14,.42-2.05,1.26-2.72s2.04-1.01,3.6-1.01,2.71,.35,3.57,1.04c.86,.7,1.29,1.59,1.29,2.68s-.49,2.08-1.48,2.81v.04l1.3,.07Zm-9.36-8.58v-3.04h9.36v3.04H15.64Zm8.25-6.04c-.86,.7-2.05,1.04-3.57,1.04s-2.76-.33-3.6-1.01c-.84-.67-1.26-1.58-1.26-2.72,0-1.08,.44-1.97,1.31-2.66v-.04h-5.27v-2.88h13.5v2.68l-1.3,.05v.04c.98,.73,1.48,1.67,1.48,2.81s-.43,1.99-1.29,2.68Zm-8.25-18.11v-3.37l7.02-1.24v-.04l-7.02-1.15v-2.84l9.36,2.29v3.46l-6.84,1.24v.04l6.84,1.24v3.44l-9.36,2.29v-2.92l7.02-1.15v-.04l-7.02-1.24Zm8.78-10.39c-.5,.54-1.19,.81-2.07,.81-1.03,0-1.86-.44-2.48-1.32-.62-.88-.94-2.15-.94-3.81v-.67h-.04c-.53,0-.89,.11-1.1,.32s-.31,.58-.31,1.11c0,1.22,.27,2.39,.81,3.51l-2.04,.38c-.54-1.21-.81-2.55-.81-4.01s.29-2.57,.85-3.21c.57-.64,1.5-.96,2.8-.96h3.37c.86,0,1.7-.09,2.52-.27v2.74c-.54,.1-.98,.16-1.31,.18v.04c.46,.32,.82,.76,1.09,1.31,.27,.55,.4,1.12,.4,1.72,0,.9-.25,1.62-.76,2.16Z"/></svg>