<svg id="画像" xmlns="http://www.w3.org/2000/svg" width="30" height="98" viewBox="0 0 30 98"><defs><style>.cls-1{fill:#fff;}</style></defs><path class="cls-1" d="M21.13,29H20.7v.66a3.59,3.59,0,0,0,.38,1.86,1.12,1.12,0,0,0,1,.64,1,1,0,0,0,.76-.29,1.16,1.16,0,0,0,.27-.8,2.09,2.09,0,0,0-.56-1.49A1.86,1.86,0,0,0,21.13,29Z"/><path class="cls-1" d="M22.3,57.56a3.1,3.1,0,0,0-1.89-.5h-.18a3.13,3.13,0,0,0-1.88.5,1.59,1.59,0,0,0-.68,1.33,1.61,1.61,0,0,0,.67,1.36,3.36,3.36,0,0,0,2,.48,3.23,3.23,0,0,0,1.95-.51,1.63,1.63,0,0,0,0-2.66Z"/><path class="cls-1" d="M22.27,73.68a3.23,3.23,0,0,0-1.95-.51,3.28,3.28,0,0,0-2,.49,1.67,1.67,0,0,0,0,2.68,3.13,3.13,0,0,0,1.88.5h.18a3.1,3.1,0,0,0,1.89-.5,1.63,1.63,0,0,0,0-2.66Z"/><path class="cls-1" d="M13,7a7,7,0,0,0-7,7V84a7,7,0,0,0,7,7H30V7Zm4.76,9.84a4.75,4.75,0,0,0,.87,3.08A2.86,2.86,0,0,0,21,21h4v2.94H15.64V21.18l1.8,0v0a5.17,5.17,0,0,1-2-4.29ZM11.5,65.43h2.34v3H11.5ZM25,77.06v2.66H11.5V76.84h5.27v0a3.47,3.47,0,0,1-.05-5.39,5.65,5.65,0,0,1,3.6-1,5.48,5.48,0,0,1,3.57,1,3.3,3.3,0,0,1,1.29,2.68A3.35,3.35,0,0,1,23.7,77v0Zm-9.36-8.58v-3H25v3Zm8.25-6a5.48,5.48,0,0,1-3.57,1,5.65,5.65,0,0,1-3.6-1,3.47,3.47,0,0,1,.05-5.39v0H11.5V54.18H25v2.68l-1.3.06v0a3.35,3.35,0,0,1,1.48,2.81A3.29,3.29,0,0,1,23.89,62.44ZM15.64,44.33V41l7-1.24v0l-7-1.15V35.69L25,38v3.46l-6.84,1.24v0L25,44v3.44l-9.36,2.28V46.76l7-1.15v0Zm8.78-10.39a2.68,2.68,0,0,1-2.07.81,2.9,2.9,0,0,1-2.48-1.32,6.57,6.57,0,0,1-.94-3.81V29h0a1.51,1.51,0,0,0-1.1.31,1.6,1.6,0,0,0-.31,1.11,8,8,0,0,0,.81,3.51l-2,.38a9.79,9.79,0,0,1-.81-4A4.86,4.86,0,0,1,16.31,27a3.59,3.59,0,0,1,2.8-1h3.37A11.72,11.72,0,0,0,25,25.81v2.73a11.34,11.34,0,0,1-1.31.18v0a3.58,3.58,0,0,1,1.09,1.3,4,4,0,0,1,.4,1.72A3,3,0,0,1,24.42,33.94Z"/></svg>