<?xml version="1.0" encoding="UTF-8"?><svg id="_åƒ" xmlns="http://www.w3.org/2000/svg" width="30" height="98" viewBox="0 0 30 98"><defs><style>.cls-1{fill:#fff;}</style></defs><path class="cls-1" d="M21.13,65.16h-.43v.67c0,.82,.13,1.44,.38,1.86s.59,.64,1.01,.64c.32,0,.58-.1,.76-.3,.18-.2,.27-.46,.27-.8,0-.6-.19-1.09-.56-1.49-.37-.39-.85-.58-1.42-.58Z"/><path class="cls-1" d="M21.13,40.25h-.43v.67c0,.82,.13,1.44,.38,1.86s.59,.64,1.01,.64c.32,0,.58-.1,.76-.3,.18-.2,.27-.46,.27-.8,0-.6-.19-1.09-.56-1.49-.37-.39-.85-.58-1.42-.58Z"/><path class="cls-1" d="M13,7c-3.87,0-7,3.13-7,7V84c0,3.87,3.13,7,7,7H30V7H13Zm12,71.01h-6.97v2.16h-2.03v-2.16h-.58c-1.22,0-2.15-.32-2.79-.96-.64-.64-.95-1.56-.95-2.76,0-.77,.09-1.51,.27-2.21l2.16,.41c-.18,.43-.27,.88-.27,1.33s.11,.79,.34,.98c.23,.19,.64,.28,1.24,.28h.58v-2.83h2.03v2.83h6.97v2.93Zm-.58-7.86c-.5,.54-1.19,.81-2.07,.81-1.03,0-1.86-.44-2.48-1.32-.62-.88-.94-2.15-.94-3.81v-.67h-.04c-.53,0-.89,.11-1.1,.32-.2,.21-.31,.58-.31,1.11,0,1.22,.27,2.39,.81,3.51l-2.03,.38c-.54-1.21-.81-2.55-.81-4.01s.29-2.57,.86-3.21c.57-.64,1.5-.96,2.8-.96h3.37c.86,0,1.7-.09,2.52-.27v2.74c-.54,.1-.98,.16-1.31,.18v.04c.46,.32,.82,.76,1.09,1.31,.27,.55,.41,1.12,.41,1.72,0,.9-.25,1.62-.76,2.16Zm-6.01-13.45c.48,.37,1.04,.55,1.67,.55h4.91v2.88H15.64v-2.66l1.3-.07v-.04c-.46-.35-.82-.78-1.08-1.29-.26-.51-.4-1.04-.4-1.58,0-1.13,.33-1.95,.99-2.47,.66-.52,1.79-.77,3.38-.77h5.17v2.84h-4.86c-.97,0-1.62,.1-1.95,.31-.33,.2-.5,.56-.5,1.08,0,.44,.24,.85,.72,1.21Zm6.01-11.46c-.5,.54-1.19,.81-2.07,.81-1.03,0-1.86-.44-2.48-1.32-.62-.88-.94-2.15-.94-3.81v-.67h-.04c-.53,0-.89,.11-1.1,.32-.2,.21-.31,.58-.31,1.11,0,1.22,.27,2.39,.81,3.51l-2.03,.38c-.54-1.21-.81-2.55-.81-4.01s.29-2.57,.86-3.21c.57-.64,1.5-.96,2.8-.96h3.37c.86,0,1.7-.09,2.52-.27v2.74c-.54,.1-.98,.16-1.31,.18v.04c.46,.32,.82,.76,1.09,1.31,.27,.55,.41,1.12,.41,1.72,0,.9-.25,1.62-.76,2.16ZM15.46,28.13h2.3c0,1.34,.29,2.37,.86,3.08s1.36,1.06,2.36,1.06h4.01v2.93H15.64v-2.74l1.8-.02v-.04c-1.32-1.04-1.98-2.47-1.98-4.28Zm8.95-4.04c-.52,.53-1.36,.8-2.52,.8h-3.85v1.93h-2.03v-1.93h-3.42v-2.93h3.42v-3.06h2.03v3.06h3.37c.65,0,1.08-.08,1.3-.23s.32-.44,.32-.85c0-.52-.1-1.06-.29-1.62l2.09-.32c.24,.85,.36,1.73,.36,2.63,0,1.15-.26,2-.77,2.53Z"/></svg>